<?xml version="1.0" standalone="yes"?>
<svg width="600" height="150">
<path style="fill:#ffffff; stroke:none;" d="M0 0L0 150L600 150L600 0L0 0z"/>
<path style="fill:#fefefe; stroke:none;" d="M520 43L520 50C517.22 48.5097 515.151 48.0891 512 48C513.305 54.7407 512.471 55.8695 506 58C507.497 58.4794 507.35 58.4 509 58C506.187 60.1533 502.374 60.7944 499 62C501.445 69.0535 506.472 75.311 506.892 83C507.906 101.563 489.781 111 474 111L487 117C488.731 115.994 490.053 115.454 492 115C496.156 107.965 505.126 107.41 512 110L507 110C507.98 111.783 507.908 111.594 510 112C509.518 114.997 509.923 115.768 512 118C514.968 116.181 517.53 115.313 521 115C520.014 116.479 520 116.203 520 118L525 120C524.594 117.908 524.783 117.98 523 117C525.262 113.133 526.323 110.507 526 106C527.023 107.534 526.805 107.402 528 108C528.402 106.057 528.402 105.943 528 104C530.618 105.583 531.599 108.22 534 110L533 114C538.36 116.657 543.925 119.073 546 125C547.84 123.283 548.349 122.434 549 120C546.643 118.896 545.624 118.044 544 116C548.504 116.697 550.752 118.607 552 123C553.44 119.568 553 115.7 553 112L555 112L555 116L557 116C556.385 108.191 556.324 102.165 553 95L555 95C554.499 92.3142 554.117 89.7301 554 87C558.071 86.3837 555.91 80.2199 558.625 77.4769C560.835 75.2441 565.15 76 568 76C566.749 74.4238 565.573 73.2555 564 72C564.957 70.4832 565.387 69.6616 566 68C569.791 69.9141 572.044 69.2216 576 68C574.727 62.3352 575.949 57.7483 576 52C569.555 52.0221 564.708 54.1197 559 57C561.293 58.0733 565.36 58.6788 565.364 61.9545C565.369 65.3485 559.582 69.0861 557.88 72.0039C553.539 79.4427 550.704 88.5313 549.286 97C548.633 100.897 548.783 106.94 544.872 109.248C542.163 110.848 540.505 108.46 540.163 105.98C539.586 101.8 541.111 96.9453 542.347 93C543.419 89.5809 544.741 86.2905 546.15 83C548.504 77.5046 551.481 72.3963 554 67C545.321 67 535.057 63.6084 527 67C526.323 63.1126 526.115 60.8569 529 58L528 55C532.914 56.4048 540.016 57.9523 545 57C545.98 58.7833 545.908 58.5943 548 59C549.208 52.4877 542.464 48.5074 538 54C532.995 53.158 528.968 53.9269 528 48L532 48C528.681 45.3362 524.22 43.6013 520 43z"/>
<path style="fill:#fffeff; stroke:none;" d="M94 44C95.6058 45.9136 96.7833 46.837 99 48C94.2748 52.5002 97.0124 58.1295 97.7145 64C98.9635 74.4428 98 85.4867 98 96C104.556 94.8729 110.316 83.1768 111 77L114 77C113.832 74.5975 113.803 73.5398 112 72L112 70C116.438 66.1203 111.433 61.3884 107 61C106.014 56.418 103.901 52.7023 105 48C103.733 46.457 103.511 45.9522 103 44L94 44z"/>
<path style="fill:#c3c3bf; stroke:none;" d="M50 47L51 48L50 47z"/>
<path style="fill:#000102; stroke:none;" d="M45 112C46.4577 107.068 45.7414 102.084 46.0895 97C46.9864 83.9031 47.8311 68.1701 53 56C56.5546 66.9241 59.2078 78.0862 62.7454 89C63.9703 92.7791 65.5958 98.8719 69.3295 100.953C74.1022 103.613 77.5129 97.5987 78.9306 94C81.4482 87.609 82.7113 80.6485 84.3735 74C85.6941 68.7174 87.5663 63.4758 87 58C82.648 64.3138 81.0058 71.4416 81 79C75.3971 80.1944 76.5261 86.7119 78 91L71 93C69.6102 86.2843 67.6402 79.6226 65.8488 73L62.1157 59C61.3074 55.9264 60.6858 51.8312 58.4367 49.4336C54.5131 45.2511 48.9084 47.8877 46.3665 52.044C39.1561 63.8341 39.9368 81.7279 40.0008 95C40.0302 101.103 40.2023 107.767 45 112z"/>
<path style="fill:#3a3b3f; stroke:none;" d="M56 47L57 48L56 47z"/>
<path style="fill:#abb6bb; stroke:none;" d="M58 48L59 49L58 48z"/>
<path style="fill:#888688; stroke:none;" d="M86 48L87 49L86 48z"/>
<path style="fill:#040000; stroke:none;" d="M72 92C74.2049 91.9059 75.8941 91.6438 78 91C77.0696 86.8567 75.6243 80.3728 81 79C81.0264 71.2788 84.6047 65.3456 86 58L87 60C87.683 58.494 87.8259 57.6852 88 56L90 56C90 69.0378 90.9983 82.0188 91 95C91.0007 100.282 90.0642 106.965 96 109C96.6565 93.7094 97.6344 78.3631 96.9606 63C96.7504 58.2066 96.3412 48.8232 89.9614 48.3372C84.3606 47.9105 83.0591 53.7942 81.8596 58C78.6251 69.3402 75.5917 80.7676 72 92z"/>
<path style="fill:#5d666e; stroke:none;" d="M92 48L93 49L92 48z"/>
<path style="fill:#fefffe; stroke:none;" d="M452 48C452 54.8766 452.596 60.2023 447 65C446.645 67.07 446.398 67.3124 445 69C443.554 64.4242 441.83 59.6014 437 58C438.423 60.2605 440.012 62.4411 440.857 65.0015C445.708 79.7202 429.243 86.7558 424 98L428 99C430.057 92.8567 435.642 90.3697 441.961 92.588C445.517 93.8364 447.023 96.1541 451 96C452.468 98.3056 453.433 99.0506 456 100L455 105L458 106L457 108C459.104 108.876 459.752 109.046 462 109C463.54 110.803 464.597 110.832 467 111C465.521 111.986 465.797 112 464 112L464 116L480 116C477.823 109.769 466.934 108.02 462.093 103.671C448.6 91.5496 452.031 72.867 466 63C467.093 58.2871 473.738 57.3007 478 57C477.402 55.8046 477.534 56.0226 476 55C477.314 54.2322 477.232 54.3141 478 53C474.953 53.5739 471.951 54.066 469 55L470 57C463.583 57.8737 461.663 59.7764 457 64C456.702 57.5587 453.425 54.7225 456 48L452 48z"/>
<path style="fill:#d8cec4; stroke:none;" d="M84 49L85 50L84 49z"/>
<path style="fill:#788088; stroke:none;" d="M94 50L95 51L94 50z"/>
<path style="fill:#fefefe; stroke:none;" d="M241 58L241 53C237.595 55.2038 236.725 58.1047 236 62C235.11 60.2552 234.547 58.8751 234 57C230.857 58.8124 227.611 62.3881 224 62C222.73 62.9725 221.973 63.7301 221 65C222.856 66.0481 223.944 66.5125 226 67C225.371 72.0432 222.578 76.1315 221.351 81C220.156 85.7441 221.178 90.2297 220.907 95C220.435 103.276 219.601 107.195 228 111L224 112L224 114C227.252 114.167 229.946 114.886 233 116L233 111C230.822 110.417 227.88 109.499 231 108C221.73 89.6577 232.26 64.2428 251 56L252 57C250.06 61.3553 246.419 64.1413 243.694 68C239.286 74.244 235.844 82.3555 235.083 90C234.67 94.1551 234.196 100.214 236.278 103.972C238.304 107.63 244.031 108.52 245 104L242 106L241 101L238 102C237.26 97.8261 237.673 94.1837 238 90L241 91C240.785 87.9682 241.132 87.0543 244 86C244.579 81.6653 246.748 78.6695 249 75L245 75L247 72C245.538 69.3365 248.785 66.559 250 64L252 64C252 65.7968 252.014 65.5215 253 67C250.751 68.1536 250.154 68.7511 249 71C250.195 72.2228 250.316 72.4199 251 74C253.166 72.8357 255.034 71.4859 257 70C256.195 66.3688 256.444 62.6622 255.691 59.0895C255.002 55.8233 253.253 53.445 253 50C248.332 50.3334 243.543 54.1164 241 58z"/>
<path style="fill:#7d716d; stroke:none;" d="M46 51L47 52L46 51z"/>
<path style="fill:#a89e94; stroke:none;" d="M83 51L84 52L83 51z"/>
<path style="fill:#9aa2ae; stroke:none;" d="M60 52L61 53L60 52z"/>
<path style="fill:#4d4239; stroke:none;" d="M83 52L84 53L83 52z"/>
<path style="fill:#949ea7; stroke:none;" d="M95 52L96 53L95 52z"/>
<path style="fill:#fefefe; stroke:none;" d="M318 52C318.029 55.5076 319.053 59.5813 318.143 62.9853C316.817 67.9416 313.137 71.7051 312.259 77C310.722 86.271 312.199 96.704 313 106C313.685 104.752 313.749 104.452 314 103L319 103L319 108C322.416 109.653 324.71 111.986 327 115L330 114C330.368 116.193 331.715 115.869 334.005 115.583C340.811 114.736 345.498 116.787 352 118C351.02 116.217 351.092 116.406 349 116C351.903 115.263 354.049 115.471 357 116C357.674 113.703 357.965 113.226 360 112L359 108C361.54 108.523 361.685 108.595 362 106L365 110L361 110C362.446 112.283 363.311 112.582 366 113C364.571 116.618 363.387 120.119 363 124C367.133 124.316 369.279 126.796 373 128C372.294 124.047 371.367 121.283 369 118C371.997 116.912 373.052 116.05 374 113C369.396 112.788 367.732 106.83 373.043 106.176C381.347 105.153 378.965 117.425 376 121C383.811 123.601 383.011 113.358 381 109L384 110C383.64 98.8523 375.786 99.577 369 94C377.424 93.629 375 82.0914 375 76C372.58 74.6181 371.939 73.6374 371 71C373.562 70.2644 373.983 69.4815 375 67C371.464 66.3824 369.09 65.8114 367 69L364 56L358 56C359.001 57.9239 359.077 58.0985 361 59C357.687 59.2309 355.171 57.9679 352 57C353.801 56.4382 355.122 56.1759 357 56C353.339 51.8511 349.248 52.0035 344 52L344 54L349 54L349 56L345 56C347.486 57.205 350.397 57.5428 352.741 59.0748C359.705 63.6282 365.355 72.8641 366.674 81C369.286 97.1162 351.789 113.414 336 110.671C332.436 110.052 329.018 108.404 326.001 106.451C304.464 92.5116 314.058 62.9055 337 57C332.879 52.7915 323.799 52.0199 318 52z"/>
<path style="fill:#51493d; stroke:none;" d="M45 53L46 54L45 53z"/>
<path style="fill:#2a3240; stroke:none;" d="M60 53L61 54L60 53z"/>
<path style="fill:#ddd0c3; stroke:none;" d="M82 54L83 55L82 54z"/>
<path style="fill:#897a6d; stroke:none;" d="M44 55L45 56L44 55z"/>
<path style="fill:#87786c; stroke:none;" d="M82 55L83 56L82 55z"/>
<path style="fill:#7c8e9b; stroke:none;" d="M96.3333 55.6667C96.2778 55.7222 96.2222 56.7778 96.6667 56.3333C96.7222 56.2778 96.7778 55.2222 96.3333 55.6667z"/>
<path style="fill:#79777c; stroke:none;" d="M52 56L53 57L52 56z"/>
<path style="fill:#788692; stroke:none;" d="M61 56L62 57L61 56z"/>
<path style="fill:#4b4542; stroke:none;" d="M88.6667 56.3333C88.2222 56.7778 89.2778 56.7222 89.3333 56.6667C89.7778 56.2222 88.7222 56.2778 88.6667 56.3333z"/>
<path style="fill:#c5cad1; stroke:none;" d="M249.667 56.3333C249.222 56.7777 250.278 56.7222 250.333 56.6667C250.778 56.2221 249.722 56.2778 249.667 56.3333z"/>
<path style="fill:#fefefe; stroke:none;" d="M52 57L48.1659 83L46 112C37.1308 107.349 38.441 90.537 39.5756 82C40.1399 77.7544 41.3228 72.7331 39 69C36.5237 74.0586 36.3492 78.4895 37 84C35.9774 82.4661 36.1954 82.5977 35 82L33 86L37 85C36.9291 88.7536 35.2684 89.5035 32 91C35.83 95.1756 38.6395 98.0296 32 101C32.2716 105.272 34.6439 109.31 32 113C33.5061 113.683 34.3148 113.826 36 114L39 125C42.0822 124.006 44.7652 122.282 48 122C48.4264 119.531 49.1324 117.355 50 115L52 115C52 116.797 52.0143 116.521 53 118C55.7584 115.093 56.4685 111.924 57 108C55.2167 108.98 55.4057 108.908 55 111C53.6473 106.548 52.8518 101.661 53 97C53.6438 99.1059 53.9059 100.795 54 103C55.5878 101.366 57.0423 100.186 59 99C58.3869 96.5889 57.9867 94.4893 58 92C62.6165 96.1592 62.067 100.253 61 106C62.2797 107.337 63.0304 108.4 64 110L69 108L68 112L72 112C75.6865 105.461 83.4186 105.632 84 97C81.8346 98.4007 81.0943 99.6426 80 102L80 97C77.6443 98.3727 74.8575 101.561 71.9892 101.519C67.0682 101.448 64.8319 94.7105 63.4252 91C59.5786 80.8539 59.2122 65.1828 52 57z"/>
<path style="fill:#6a6665; stroke:none;" d="M53 57L54 58L53 57z"/>
<path style="fill:#847f7a; stroke:none;" d="M88.6667 57.3333C88.2222 57.7778 89.2778 57.7222 89.3333 57.6667C89.7778 57.2222 88.7222 57.2778 88.6667 57.3333z"/>
<path style="fill:#233142; stroke:none;" d="M96.3333 57.6667C96.2778 57.7222 96.2222 58.7778 96.6667 58.3333C96.7222 58.2778 96.7778 57.2222 96.3333 57.6667z"/>
<path style="fill:#6b6a67; stroke:none;" d="M247 57L248 58L247 57z"/>
<path style="fill:#030000; stroke:none;" d="M248 111L248 114C254.335 113.506 253.15 109.451 256.278 105C261.006 98.2713 271.991 83.8962 263.297 75.6034C259.018 71.522 251.66 75.0965 248.853 79.044C243.466 86.6203 243.452 97.4601 246 106C237.8 108.723 233.767 101.685 234.104 94C234.477 85.514 238.145 77.0324 242.699 70C245.543 65.6082 249.574 62.0941 251 57C236.191 59.8654 228.061 79.3916 228.001 93C227.975 98.8049 227.847 105.488 233.108 109.272C237.638 112.531 242.885 111.4 248 111z"/>
<path style="fill:#7c848f; stroke:none;" d="M251.333 57.6667C251.278 57.7223 251.222 58.7777 251.667 58.3333C251.722 58.2778 251.778 57.2222 251.333 57.6667z"/>
<path style="fill:#9a999a; stroke:none;" d="M303 57C304.248 57.6848 304.548 57.7488 306 58C304.752 57.3152 304.452 57.2512 303 57z"/>
<path style="fill:#e8e8e8; stroke:none;" d="M340 57C341.506 57.683 342.315 57.8259 344 58C342.494 57.317 341.685 57.1741 340 57z"/>
<path style="fill:#a09b9a; stroke:none;" d="M516 57C517.248 57.6848 517.548 57.7488 519 58C517.752 57.3152 517.452 57.2512 516 57z"/>
<path style="fill:#848484; stroke:none;" d="M529 57C530.506 57.6831 531.315 57.8259 533 58C531.494 57.317 530.685 57.1741 529 57z"/>
<path style="fill:#968880; stroke:none;" d="M43 58L44 59L43 58z"/>
<path style="fill:#b8ab9c; stroke:none;" d="M81 58L82 59L81 58z"/>
<path style="fill:#fefefe; stroke:none;" d="M88 58C87.5634 66.6588 84.239 75.5997 82.1389 84C81.4879 86.6038 78.8616 92.0839 79.9167 94.6389C80.9357 97.1065 81.8962 93.4837 82 93C84.0835 96.3684 86.091 99.9222 86.1497 104C86.1882 106.677 84.321 110.889 86.0671 113.258C87.6979 115.47 91.6192 114.978 94 115C92.9644 116.186 92.6614 116.604 92 118L95 119C93.9644 120.186 93.6614 120.604 93 122C96.3363 123.406 98.4834 123.938 102 123C100.457 121.733 99.9522 121.511 98 121C99.2766 119.085 99.2767 119.915 98 118C101.78 118.63 100.518 121.103 103 118L104 123C109.508 122.999 113.025 122.226 118 120C116.63 114.443 114.568 108.667 114 103C111.908 103.025 109.322 102.746 107.508 104.028C104.022 106.491 103.52 115.262 97.9946 109.992L97 108C91.1538 109.133 90.1305 101.428 90.0147 97C89.7868 88.2915 89.4192 79.6753 89.0394 71C88.8504 66.6839 89.6894 62.0261 88 58z"/>
<path style="fill:#5a554e; stroke:none;" d="M89 58L89 61C89.6961 59.4463 89.6961 59.5537 89 58z"/>
<path style="fill:#b7afa6; stroke:none;" d="M245 58L246 59L245 58z"/>
<path style="fill:#a09890; stroke:none;" d="M302 58L303 59L302 58z"/>
<path style="fill:#000000; stroke:none;" d="M295 70C297.642 72.4469 299.486 72.6496 303 72L304 110L310 110L310 102C308.916 104.48 308.67 106.816 307 109C308.705 103.23 307.589 97.3503 307.888 91.4244C308.25 84.2453 309 77.2539 309 70C309 67.0255 310.341 59.031 305.96 58.466C302.268 57.99 297.827 67.6381 295 70z"/>
<path style="fill:#a1a3b0; stroke:none;" d="M308 58L309 59L308 58z"/>
<path style="fill:#898481; stroke:none;" d="M335 58L336 59L335 58z"/>
<path style="fill:#32312f; stroke:none;" d="M336 58L337 59L336 58z"/>
<path style="fill:#000000; stroke:none;" d="M337 58.4645C327.267 60.2188 318.541 66.3923 315.249 76C309.076 94.0201 324.788 113.912 344 110.38C349.459 109.377 354.915 106.92 358.815 102.895C375.442 85.7359 361.685 54.0155 337 58.4645z"/>
<path style="fill:#676c6f; stroke:none;" d="M347 58L348 59L347 58z"/>
<path style="fill:#c9ccd2; stroke:none;" d="M348 58L349 59L348 58z"/>
<path style="fill:#c9c8c4; stroke:none;" d="M421 58L422 59L421 58z"/>
<path style="fill:#8f8e8c; stroke:none;" d="M422 58L423 59L422 58z"/>
<path style="fill:#5c5b59; stroke:none;" d="M423 58L424 59L423 58z"/>
<path style="fill:#010000; stroke:none;" d="M415 75C416.962 69.2811 421.873 65.7048 428 65.2045C432.433 64.8424 437.822 67.868 436.294 73C433.546 82.2302 421.031 91.2748 414 97.2701C409.419 101.177 404.488 103.587 404 110C408.105 109.589 411.9 107.475 416 107.355C427.763 107.01 444.583 112.467 451 99C446.907 99.7274 443.144 102.215 439 102.498C433.102 102.9 427.04 100.05 421 100C426.739 91.8531 437.363 85.9086 440.351 76C444.799 61.2513 429.828 55.1286 418.005 60.1335C412.477 62.4735 407.167 72.4003 415 75z"/>
<path style="fill:#4f5055; stroke:none;" d="M430 58L431 59L430 58z"/>
<path style="fill:#7c7d81; stroke:none;" d="M431 58L432 59L431 58z"/>
<path style="fill:#c1c1c3; stroke:none;" d="M432 58L433 59L432 58z"/>
<path style="fill:#82817f; stroke:none;" d="M475 58L476 59L475 58z"/>
<path style="fill:#3c3a3b; stroke:none;" d="M476 58L477 59L476 58z"/>
<path style="fill:#010103; stroke:none;" d="M477 58.4645C471.908 59.3822 467.09 61.3595 463.09 64.6806C442.647 81.6569 459.417 114.887 485 110.064C511.027 105.157 513.86 64.6934 487 58.5293C483.761 57.7859 480.256 57.8776 477 58.4645z"/>
<path style="fill:#707072; stroke:none;" d="M487 58L488 59L487 58z"/>
<path style="fill:#c1c5c6; stroke:none;" d="M488 58L489 59L488 58z"/>
<path style="fill:#a09c90; stroke:none;" d="M515 58L516 59L515 58z"/>
<path style="fill:#010100; stroke:none;" d="M508 70C510.642 72.4469 512.486 72.6496 516 72L517 110L523 110C523 96.963 522 84.0573 522 71C522 67.9197 523.501 59.0517 518.96 58.466C515.268 57.99 510.827 67.6381 508 70z"/>
<path style="fill:#969ba4; stroke:none;" d="M521 58L522 59L521 58z"/>
<path style="fill:#9e9592; stroke:none;" d="M527 58L528 59L527 58z"/>
<path style="fill:#000000; stroke:none;" d="M527 67C528.922 66.0985 528.999 65.9238 530 64C537.819 65.9262 545.954 66.9947 554 67C551.646 72.4622 548.501 77.5119 546.15 83C543.288 89.6841 540.898 96.6864 540.306 103.995C540.04 107.271 542.585 112.093 546.143 108.392C548.622 105.812 548.33 100.327 549.004 97C550.545 89.3966 552.983 82.0132 556.32 75C558.164 71.1261 566.018 65.1967 565.534 61.1304C564.827 55.1899 555.955 61.827 552.985 61.7716C546.871 61.6575 541.052 58.7823 535 58.1744C532.812 57.9546 529.576 57.6567 528.028 59.6034C526.532 61.4841 527.008 64.7679 527 67z"/>
<path style="fill:#5c5d61; stroke:none;" d="M537 58L538 59L537 58z"/>
<path style="fill:#a9acb2; stroke:none;" d="M538 58L539 59L538 58z"/>
<path style="fill:#4a4944; stroke:none;" d="M560 58L561 59L560 58z"/>
<path style="fill:#392b23; stroke:none;" d="M43 59L44 60L43 59z"/>
<path style="fill:#373e4d; stroke:none;" d="M51 59L52 60L51 59z"/>
<path style="fill:#bec7d8; stroke:none;" d="M62 59L63 60L62 59z"/>
<path style="fill:#504135; stroke:none;" d="M81 59L82 60L81 59z"/>
<path style="fill:#50493f; stroke:none;" d="M244 59L245 60L244 59z"/>
<path style="fill:#4b4238; stroke:none;" d="M302 59L303 60L302 59z"/>
<path style="fill:#c2c3be; stroke:none;" d="M331 59L332 60L331 59z"/>
<path style="fill:#504f4a; stroke:none;" d="M332 59L333 60L332 59z"/>
<path style="fill:#717277; stroke:none;" d="M350 59L351 60L350 59z"/>
<path style="fill:#b9b8b3; stroke:none;" d="M418 59L419 60L418 59z"/>
<path style="fill:#373631; stroke:none;" d="M419 59L420 60L419 59z"/>
<path style="fill:#424347; stroke:none;" d="M434 59L435 60L434 59z"/>
<path style="fill:#d0d4d9; stroke:none;" d="M435 59L436 60L435 59z"/>
<path style="fill:#cecdc9; stroke:none;" d="M471 59L472 60L471 59z"/>
<path style="fill:#464540; stroke:none;" d="M472 59L473 60L472 59z"/>
<path style="fill:#63676a; stroke:none;" d="M490 59L491 60L490 59z"/>
<path style="fill:#4e483b; stroke:none;" d="M515 59L516 60L515 59z"/>
<path style="fill:#948a81; stroke:none;" d="M526 59L527 60L526 59z"/>
<path style="fill:#51555a; stroke:none;" d="M541 59L542 60L541 59z"/>
<path style="fill:#9a9ba1; stroke:none;" d="M542 59L543 60L542 59z"/>
<path style="fill:#d5d0ca; stroke:none;" d="M558 59L559 60L558 59z"/>
<path style="fill:#8d94a5; stroke:none;" d="M51 60L52 61L51 60z"/>
<path style="fill:#91877c; stroke:none;" d="M54 60L55 61L54 60z"/>
<path style="fill:#5c6978; stroke:none;" d="M62 60L63 61L62 60z"/>
<path style="fill:#b2b6c0; stroke:none;" d="M250 60L251 61L250 60z"/>
<path style="fill:#8a8985; stroke:none;" d="M329 60L330 61L329 60z"/>
<path style="fill:#565c60; stroke:none;" d="M352 60L353 61L352 60z"/>
<path style="fill:#82817d; stroke:none;" d="M416 60L417 61L416 60z"/>
<path style="fill:#454952; stroke:none;" d="M436 60L437 61L436 60z"/>
<path style="fill:#8f8b88; stroke:none;" d="M469 60L470 61L469 60z"/>
<path style="fill:#56595f; stroke:none;" d="M492 60L493 61L492 60z"/>
<path style="fill:#615342; stroke:none;" d="M526 60L526 63C526.696 61.4463 526.696 61.5537 526 60z"/>
<path style="fill:#555556; stroke:none;" d="M545 60L546 61L545 60z"/>
<path style="fill:#9fa0a4; stroke:none;" d="M546 60L547 61L546 60z"/>
<path style="fill:#c9d1e3; stroke:none;" d="M51 61L52 62L51 61z"/>
<path style="fill:#dbcec4; stroke:none;" d="M80 61L81 62L80 61z"/>
<path style="fill:#5f6774; stroke:none;" d="M87 61L88 62L87 61z"/>
<path style="fill:#b4a69f; stroke:none;" d="M89 61L89 68C90.0595 65.4657 90.0595 63.5343 89 61z"/>
<path style="fill:#c1c5cc; stroke:none;" d="M249 61L250 62L249 61z"/>
<path style="fill:#97928f; stroke:none;" d="M327 61L328 62L327 61z"/>
<path style="fill:#84898f; stroke:none;" d="M354 61L355 62L354 61z"/>
<path style="fill:#9a9892; stroke:none;" d="M467 61L468 62L467 61z"/>
<path style="fill:#8c9198; stroke:none;" d="M494 61L495 62L494 61z"/>
<path style="fill:#343539; stroke:none;" d="M550 61L551 62L550 61z"/>
<path style="fill:#8f8e94; stroke:none;" d="M551.667 61.3333C551.222 61.7777 552.278 61.7222 552.333 61.6667C552.778 61.2223 551.722 61.2777 551.667 61.3333z"/>
<path style="fill:#e8e2df; stroke:none;" d="M553 61C554.506 61.6831 555.315 61.8259 557 62C555.494 61.317 554.685 61.1741 553 61z"/>
<path style="fill:#64605b; stroke:none;" d="M557 61L558 62L557 61z"/>
<path style="fill:#9e9487; stroke:none;" d="M42 62L43 63L42 62z"/>
<path style="fill:#87776f; stroke:none;" d="M80 62L81 63L80 62z"/>
<path style="fill:#adb4c4; stroke:none;" d="M87 62L88 63L87 62z"/>
<path style="fill:#c0cfd7; stroke:none;" d="M97 62L97 73C98.4309 69.59 98.4309 65.41 97 62z"/>
<path style="fill:#b7bac0; stroke:none;" d="M248 62L249 63L248 62z"/>
<path style="fill:#a69d95; stroke:none;" d="M301 62L302 63L301 62z"/>
<path style="fill:#c8c5bf; stroke:none;" d="M413 62L414 63L413 62z"/>
<path style="fill:#aea395; stroke:none;" d="M514 62L515 63L514 62z"/>
<path style="fill:#54483b; stroke:none;" d="M42 63L43 64L42 63z"/>
<path style="fill:#88756a; stroke:none;" d="M55 63L56 64L55 63z"/>
<path style="fill:#99a9b6; stroke:none;" d="M63 63L64 64L63 63z"/>
<path style="fill:#939aa1; stroke:none;" d="M247 63L248 64L247 63z"/>
<path style="fill:#948c89; stroke:none;" d="M324 63L325 64L324 63z"/>
<path style="fill:#afb2ba; stroke:none;" d="M357 63L358 64L357 63z"/>
<path style="fill:#424857; stroke:none;" d="M439 63L440 64L439 63z"/>
<path style="fill:#968d8b; stroke:none;" d="M464 63L465 64L464 63z"/>
<path style="fill:#abb0b2; stroke:none;" d="M497 63L498 64L497 63z"/>
<path style="fill:#e0cbc8; stroke:none;" d="M526.333 63.6667C526.278 63.7223 526.222 64.7777 526.667 64.3333C526.722 64.2778 526.778 63.2222 526.333 63.6667z"/>
<path style="fill:#434d5f; stroke:none;" d="M50 64L51 65L50 64z"/>
<path style="fill:#384458; stroke:none;" d="M63 64L64 65L63 64z"/>
<path style="fill:#6a7b82; stroke:none;" d="M246 64L247 65L246 64z"/>
<path style="fill:#bfb1aa; stroke:none;" d="M300 64L301 65L300 64z"/>
<path style="fill:#43352e; stroke:none;" d="M323 64L324 65L323 64z"/>
<path style="fill:#6e6e70; stroke:none;" d="M346.667 64.3333C346.222 64.7778 347.278 64.7222 347.333 64.6667C347.778 64.2223 346.722 64.2777 346.667 64.3333z"/>
<path style="fill:#8a8d9e; stroke:none;" d="M358 64L359 65L358 64z"/>
<path style="fill:#c2cdd8; stroke:none;" d="M440 64L441 65L440 64z"/>
<path style="fill:#4e433e; stroke:none;" d="M463 64L464 65L463 64z"/>
<path style="fill:#707176; stroke:none;" d="M486.667 64.3333C486.222 64.7779 487.278 64.7221 487.333 64.6667C487.778 64.2223 486.722 64.2777 486.667 64.3333z"/>
<path style="fill:#858a91; stroke:none;" d="M498 64L499 65L498 64z"/>
<path style="fill:#c3b3ae; stroke:none;" d="M513 64L514 65L513 64z"/>
<path style="fill:#45464a; stroke:none;" d="M530.667 64.3333C530.222 64.7778 531.278 64.7222 531.333 64.6667C531.778 64.2223 530.722 64.2778 530.667 64.3333z"/>
<path style="fill:#acafb5; stroke:none;" d="M565 64L566 65L565 64z"/>
<path style="fill:#838c9d; stroke:none;" d="M50 65L51 66L50 65z"/>
<path style="fill:#bda9a5; stroke:none;" d="M79 65L80 66L79 65z"/>
<path style="fill:#30434e; stroke:none;" d="M86 65L87 66L86 65z"/>
<path style="fill:#27323b; stroke:none;" d="M245 65L246 66L245 65z"/>
<path style="fill:#ffffff; stroke:none;" d="M347 65C348.783 68.0033 350.317 70.5599 351 74C347.562 70.74 343.832 67.3266 339 66.4059C335.857 65.8071 332.958 67.13 330 66C310.693 76.106 321.346 104.507 342 102.906C362.646 101.305 365.7 72.2453 347 65z"/>
<path style="fill:#9ba3af; stroke:none;" d="M359 65L360 66L359 65z"/>
<path style="fill:#b3a4a1; stroke:none;" d="M411 65L412 66L411 65z"/>
<path style="fill:#757a7d; stroke:none;" d="M425 65L426 66L425 65z"/>
<path style="fill:#b8b9bb; stroke:none;" d="M426 65L427 66L426 65z"/>
<path style="fill:#fefefe; stroke:none;" d="M415 77C417.283 78.4463 417.582 79.3106 418 82L422 83L421 87L419 86L418 90L414 89C412.774 91.0347 412.297 91.3264 410 92C409.186 95.0331 407.519 97.2742 406 100C403.942 97.338 402.67 93.9846 400 92C400.013 98.4265 399.755 103.772 398 110C399.478 110.986 399.203 111 401 111C399.199 111.562 397.878 111.824 396 112C396.648 114.709 396.942 117.216 397 120L400 120L400 125L406 124L406 120L401 120C402.098 117.918 402.685 116.33 403 114C407.89 114.981 410.965 119.005 416 119C415.267 116.071 414.032 114.227 412 112C413.572 111.169 413.604 110.827 414 109C411.671 109.098 405.466 110.766 404.461 107.683C403.208 103.836 410.785 100.669 413 98.787C419.283 93.4501 425.822 87.1673 431.192 80.9105C433.334 78.415 435.969 75.3631 436.522 72.0046C437.626 65.3047 429.593 64.677 425.001 65.929C418.972 67.5724 417.453 71.7866 415 77z"/>
<path style="fill:#b6b5b3; stroke:none;" d="M432 65L433 66L432 65z"/>
<path style="fill:#3e3a37; stroke:none;" d="M433 65L434 66L433 65z"/>
<path style="fill:#333e4a; stroke:none;" d="M440 65L441 66L440 65z"/>
<path style="fill:#ffffff; stroke:none;" d="M487 65C488.783 68.0033 490.317 70.5599 491 74C487.562 70.74 483.832 67.3266 479 66.4059C475.857 65.8071 472.958 67.13 470 66C450.807 76.0464 461.414 104.568 482 102.907C502.649 101.24 505.797 72.283 487 65z"/>
<path style="fill:#979ea4; stroke:none;" d="M499 65L500 66L499 65z"/>
<path style="fill:#74757b; stroke:none;" d="M529 65L530 66L529 65z"/>
<path style="fill:#cccacc; stroke:none;" d="M535 65L536 66L535 65z"/>
<path style="fill:#a09f9c; stroke:none;" d="M536 65L537 66L536 65z"/>
<path style="fill:#646361; stroke:none;" d="M537 65L538 66L537 65z"/>
<path style="fill:#ada194; stroke:none;" d="M41.3333 66.6667C41.2778 66.7222 41.2222 67.7778 41.6667 67.3333C41.7223 67.2777 41.7778 66.2222 41.3333 66.6667z"/>
<path style="fill:#6f5c51; stroke:none;" d="M56 66L57 67L56 66z"/>
<path style="fill:#51413c; stroke:none;" d="M79 66L80 67L79 66z"/>
<path style="fill:#92a1ad; stroke:none;" d="M86 66L87 67L86 66z"/>
<path style="fill:#6e6459; stroke:none;" d="M237 66L238 67L237 66z"/>
<path style="fill:#c7c7c7; stroke:none;" d="M328 66L329 67L328 66z"/>
<path style="fill:#43363a; stroke:none;" d="M330 66L331 67L330 66z"/>
<path style="fill:#6c7076; stroke:none;" d="M333 66L334 67L333 66z"/>
<path style="fill:#78766e; stroke:none;" d="M340 66L341 67L340 66z"/>
<path style="fill:#9a948f; stroke:none;" d="M350 66L351 67L350 66z"/>
<path style="fill:#bfc9d2; stroke:none;" d="M360 66L361 67L360 66z"/>
<path style="fill:#392b25; stroke:none;" d="M411 66L412 67L411 66z"/>
<path style="fill:#6f7075; stroke:none;" d="M422 66L423 67L422 66z"/>
<path style="fill:#cfcece; stroke:none;" d="M468 66L469 67L468 66z"/>
<path style="fill:#353533; stroke:none;" d="M470 66L471 67L470 66z"/>
<path style="fill:#6f6f71; stroke:none;" d="M473 66L474 67L473 66z"/>
<path style="fill:#79797a; stroke:none;" d="M480 66L481 67L480 66z"/>
<path style="fill:#988f8c; stroke:none;" d="M490 66L491 67L490 66z"/>
<path style="fill:#c4ccd4; stroke:none;" d="M500 66L501 67L500 66z"/>
<path style="fill:#d1d0ce; stroke:none;" d="M541 66L542 67L541 66z"/>
<path style="fill:#82817f; stroke:none;" d="M542.667 66.3333C542.222 66.7778 543.278 66.7222 543.333 66.6667C543.778 66.2222 542.722 66.2778 542.667 66.3333z"/>
<path style="fill:#484445; stroke:none;" d="M544 66L545 67L544 66z"/>
<path style="fill:#7f858b; stroke:none;" d="M561 66L562 67L561 66z"/>
<path style="fill:#d3c5b8; stroke:none;" d="M56 67L57 68L56 67z"/>
<path style="fill:#86939f; stroke:none;" d="M64 67L65 68L64 67z"/>
<path style="fill:#aaa197; stroke:none;" d="M236 67L237 68L236 67z"/>
<path style="fill:#4e423e; stroke:none;" d="M298 67L299 68L298 67z"/>
<path style="fill:#c3d1da; stroke:none;" d="M309 67L309 77C310.346 73.793 310.346 70.207 309 67z"/>
<path style="fill:#90999b; stroke:none;" d="M326 67L327 68L326 67z"/>
<path style="fill:#d4cacd; stroke:none;" d="M330.667 67.3333C330.222 67.7779 331.278 67.7222 331.333 67.6667C331.778 67.2223 330.722 67.2777 330.667 67.3333z"/>
<path style="fill:#c9c2b9; stroke:none;" d="M342 67L343 68L342 67z"/>
<path style="fill:#75767b; stroke:none;" d="M420 67L421 68L420 67z"/>
<path style="fill:#a0afbb; stroke:none;" d="M441 67L442 68L441 67z"/>
<path style="fill:#929397; stroke:none;" d="M466 67L467 68L466 67z"/>
<path style="fill:#cacac8; stroke:none;" d="M470.667 67.3333C470.222 67.7779 471.278 67.7221 471.333 67.6667C471.778 67.2224 470.722 67.2777 470.667 67.3333z"/>
<path style="fill:#c7bebb; stroke:none;" d="M482 67L483 68L482 67z"/>
<path style="fill:#514541; stroke:none;" d="M511 67L512 68L511 67z"/>
<path style="fill:#c6d1db; stroke:none;" d="M522 67L522 77C523.346 73.793 523.346 70.207 522 67z"/>
<path style="fill:#3e4147; stroke:none;" d="M560 67L561 68L560 67z"/>
<path style="fill:#3c2e24; stroke:none;" d="M41.3333 68.6667C41.2778 68.7222 41.2222 69.7778 41.6667 69.3333C41.7222 69.2778 41.7778 68.2222 41.3333 68.6667z"/>
<path style="fill:#273141; stroke:none;" d="M64 68L65 69L64 68z"/>
<path style="fill:#dfd0c7; stroke:none;" d="M78 68L79 69L78 68z"/>
<path style="fill:#f4ece1; stroke:none;" d="M89 68L89 76C90.1614 73.2301 90.1614 70.7699 89 68z"/>
<path style="fill:#878f98; stroke:none;" d="M243 68L244 69L243 68z"/>
<path style="fill:#463832; stroke:none;" d="M297 68L298 69L297 68z"/>
<path style="fill:#373027; stroke:none;" d="M319 68L320 69L319 68z"/>
<path style="fill:#a7b6bd; stroke:none;" d="M325 68L326 69L325 68z"/>
<path style="fill:#a79c9b; stroke:none;" d="M344 68L345 69L344 68z"/>
<path style="fill:#61616c; stroke:none;" d="M349 68L350 69L349 68z"/>
<path style="fill:#70665e; stroke:none;" d="M353 68L354 69L353 68z"/>
<path style="fill:#28303e; stroke:none;" d="M361 68L362 69L361 68z"/>
<path style="fill:#262c30; stroke:none;" d="M418 68L419 69L418 68z"/>
<path style="fill:#8093a4; stroke:none;" d="M441.333 68.6667C441.278 68.7221 441.222 69.7778 441.667 69.3333C441.722 69.2777 441.778 68.2222 441.333 68.6667z"/>
<path style="fill:#382d23; stroke:none;" d="M459 68L460 69L459 68z"/>
<path style="fill:#aab0b6; stroke:none;" d="M465 68L466 69L465 68z"/>
<path style="fill:#aa9f9d; stroke:none;" d="M484 68L485 69L484 68z"/>
<path style="fill:#5c616d; stroke:none;" d="M489 68L490 69L489 68z"/>
<path style="fill:#786e66; stroke:none;" d="M493 68L494 69L493 68z"/>
<path style="fill:#2b333e; stroke:none;" d="M501 68L502 69L501 68z"/>
<path style="fill:#463932; stroke:none;" d="M510 68L511 69L510 68z"/>
<path style="fill:#a89e98; stroke:none;" d="M553 68L554 69L553 68z"/>
<path style="fill:#4f4034; stroke:none;" d="M57 69L58 70L57 69z"/>
<path style="fill:#837467; stroke:none;" d="M78 69L79 70L78 69z"/>
<path style="fill:#323d49; stroke:none;" d="M85 69L86 70L85 69z"/>
<path style="fill:#b9afa5; stroke:none;" d="M295 69L296 70L295 69z"/>
<path style="fill:#9b948e; stroke:none;" d="M318 69L319 70L318 69z"/>
<path style="fill:#919fac; stroke:none;" d="M324 69L325 70L324 69z"/>
<path style="fill:#9e8e85; stroke:none;" d="M354 69L355 70L354 69z"/>
<path style="fill:#a7b2bf; stroke:none;" d="M362 69L363 70L362 69z"/>
<path style="fill:#dad2c2; stroke:none;" d="M410 69L411 70L410 69z"/>
<path style="fill:#aab3b6; stroke:none;" d="M417 69L418 70L417 69z"/>
<path style="fill:#534234; stroke:none;" d="M437.333 69.6667C437.278 69.7221 437.222 70.7778 437.667 70.3333C437.722 70.2777 437.778 69.2223 437.333 69.6667z"/>
<path style="fill:#a0958a; stroke:none;" d="M458 69L459 70L458 69z"/>
<path style="fill:#99a1a9; stroke:none;" d="M464 69L465 70L464 69z"/>
<path style="fill:#9b9587; stroke:none;" d="M494 69L495 70L494 69z"/>
<path style="fill:#a5b2c1; stroke:none;" d="M502 69L503 70L502 69z"/>
<path style="fill:#b6a99c; stroke:none;" d="M508 69L509 70L508 69z"/>
<path style="fill:#b8bcc8; stroke:none;" d="M559 69L560 70L559 69z"/>
<path style="fill:#7f8f9a; stroke:none;" d="M49.3333 70.6667C49.2778 70.7222 49.2222 71.7778 49.6667 71.3333C49.7222 71.2778 49.7778 70.2222 49.3333 70.6667z"/>
<path style="fill:#b1a598; stroke:none;" d="M57 70L58 71L57 70z"/>
<path style="fill:#b9c6d3; stroke:none;" d="M65 70L66 71L65 70z"/>
<path style="fill:#8b95a6; stroke:none;" d="M85 70L86 71L85 70z"/>
<path style="fill:#6c6156; stroke:none;" d="M234 70L235 71L234 70z"/>
<path style="fill:#3f4756; stroke:none;" d="M323 70L324 71L323 70z"/>
<path style="fill:#63595a; stroke:none;" d="M347 70L348 71L347 70z"/>
<path style="fill:#5e6578; stroke:none;" d="M350 70L351 71L350 70z"/>
<path style="fill:#908675; stroke:none;" d="M355 70L356 71L355 70z"/>
<path style="fill:#b9b2a3; stroke:none;" d="M410.333 70.6667C410.278 70.7221 410.222 71.7778 410.667 71.3333C410.722 71.2777 410.778 70.2222 410.333 70.6667z"/>
<path style="fill:#c6ced4; stroke:none;" d="M416 70L417 71L416 70z"/>
<path style="fill:#172c3e; stroke:none;" d="M441.333 70.6667C441.278 70.7221 441.222 71.7778 441.667 71.3333C441.722 71.2777 441.778 70.2222 441.333 70.6667z"/>
<path style="fill:#3a4550; stroke:none;" d="M463 70L464 71L463 70z"/>
<path style="fill:#635a57; stroke:none;" d="M487 70L488 71L487 70z"/>
<path style="fill:#646c77; stroke:none;" d="M490 70L491 71L490 70z"/>
<path style="fill:#8c8572; stroke:none;" d="M495 70L496 71L495 70z"/>
<path style="fill:#5a4b43; stroke:none;" d="M552 70L553 71L552 70z"/>
<path style="fill:#242b38; stroke:none;" d="M558 70L559 71L558 70z"/>
<path style="fill:#6c7988; stroke:none;" d="M65 71L66 72L65 71z"/>
<path style="fill:#828b97; stroke:none;" d="M241 71L242 72L241 71z"/>
<path style="fill:#372d23; stroke:none;" d="M317 71L318 72L317 71z"/>
<path style="fill:#948f8e; stroke:none;" d="M348 71L349 72L348 71z"/>
<path style="fill:#4c4338; stroke:none;" d="M356 71L357 72L356 71z"/>
<path style="fill:#646a7b; stroke:none;" d="M363 71L364 72L363 71z"/>
<path style="fill:#948f91; stroke:none;" d="M488 71L489 72L488 71z"/>
<path style="fill:#463e32; stroke:none;" d="M496 71L497 72L496 71z"/>
<path style="fill:#636b80; stroke:none;" d="M503 71L504 72L503 71z"/>
<path style="fill:#ddd3c6; stroke:none;" d="M551 71L552 72L551 71z"/>
<path style="fill:#d6e1ee; stroke:none;" d="M49.3333 72.6667C49.2778 72.7222 49.2222 73.7778 49.6667 73.3333C49.7222 73.2778 49.7778 72.2222 49.3333 72.6667z"/>
<path style="fill:#b3a59b; stroke:none;" d="M77 72L78 73L77 72z"/>
<path style="fill:#fefefe; stroke:none;" d="M122 72C121.434 74.3317 120.704 75.3101 119 77C120.248 77.6848 120.548 77.7488 122 78L119 80C121.571 91.1889 117.791 103.966 122 115C120.814 113.814 120.416 113.472 119 113L119 117C121.686 116.499 124.27 116.117 127 116L127 120L125 117C120.44 118.248 118.634 120.307 118 125C123.616 123.957 129.297 123.662 135 124L135 120C131.727 121.21 129.119 118.72 131.76 115.513C133.312 113.628 135.771 113.357 138 113L138 116L144 117C144.726 114.821 144.439 115.22 146 116C145.334 110.731 143.047 107.262 140 103C135.918 103.843 133.611 102.977 130 101C129.992 103.381 130.41 106.587 128.976 108.663C127.371 110.986 124.798 110.142 123.742 107.847C121.094 102.092 124.084 93.0519 127 88C126.21 85.5656 126.147 83.5219 126 81C131.352 79.8996 136.366 78.9047 141.711 80.8495C145.691 82.2981 148.517 86.196 153.004 86.4761C157.924 86.7831 162.093 82.0526 167 81.3441C170.02 80.9081 175.721 81.8534 175.654 85.9699C175.577 90.7007 169.414 87.5902 167 87.8457C161.55 88.4222 157.477 94.7692 158.164 99.956C159.174 107.586 167.311 103.675 171.98 103.523C175.577 103.406 176.287 105.868 175.363 108.844C175.057 109.832 174.39 111.096 174 112C175.797 112 175.521 111.986 177 111C173.946 113.5 169.494 113.102 167 116C169.874 115.801 172.203 116.315 175 117C173.973 119.398 173.322 121.416 173 124L175 124L175 120C175.986 121.479 176 121.203 176 123L185 123C183.817 118.955 180.694 119.185 177 120C179.548 118.031 182.187 116.56 185 115L187 120L189 120L190 119L188 115C189.457 116.103 189.897 116.543 191 118C193.78 116.452 197.248 114.95 200 117C201.823 116.255 203.023 116.046 205 116L205 111C206.915 112.277 206.085 112.277 208 111C203.792 107.985 197.685 112.887 196.148 106.141C195.937 105.214 196.029 103.891 196 103C193.558 102.89 191.377 102.572 189 102C188.965 104.937 187.411 114.121 182.857 108.663C180.085 105.34 178.231 96.2766 178 92L182 93C182.002 90.6858 183.178 78.022 187.973 84.4776C190.018 87.2309 189 92.7563 189 96L195 96C194.99 92.449 192.462 76.3814 200 80C200.683 78.494 200.826 77.6852 201 76L155 76L159 81C156.614 79.6866 154.473 77.5198 151.91 76.588C148.337 75.2882 143.783 75.7023 140 75L139 79C137.952 77.1441 137.488 76.0558 137 74C132.37 76.148 129.023 76.3543 124 76L124 72L122 72z"/>
<path style="fill:#3b3026; stroke:none;" d="M233 72L234 73L233 72z"/>
<path style="fill:#887f7d; stroke:none;" d="M297 72L298 73L297 72z"/>
<path style="fill:#b1aea3; stroke:none;" d="M301 72L302 77C302.916 74.6995 302.879 73.6232 301 72z"/>
<path style="fill:#cdc4b9; stroke:none;" d="M316 72L317 73L316 72z"/>
<path style="fill:#abb8c5; stroke:none;" d="M322 72L323 73L322 72z"/>
<path style="fill:#9d9c9c; stroke:none;" d="M349 72L350 73L349 72z"/>
<path style="fill:#5d616d; stroke:none;" d="M415 72L416 73L415 72z"/>
<path style="fill:#708095; stroke:none;" d="M441.333 72.6667C441.278 72.7221 441.222 73.7778 441.667 73.3333C441.722 73.2777 441.778 72.2222 441.333 72.6667z"/>
<path style="fill:#d1c7bc; stroke:none;" d="M456 72L457 73L456 72z"/>
<path style="fill:#b4c1ce; stroke:none;" d="M462 72L463 73L462 72z"/>
<path style="fill:#a0a09d; stroke:none;" d="M489 72L490 73L489 72z"/>
<path style="fill:#888581; stroke:none;" d="M510 72L511 73L510 72z"/>
<path style="fill:#b5aca4; stroke:none;" d="M514 72L515 78C516.039 75.4708 516.093 73.8243 514 72z"/>
<path style="fill:#372c1f; stroke:none;" d="M551 72L552 73L551 72z"/>
<path style="fill:#424a58; stroke:none;" d="M557 72L558 73L557 72z"/>
<path style="fill:#b6a495; stroke:none;" d="M40.3333 73.6667C40.2778 73.7222 40.2222 74.7778 40.6667 74.3333C40.7222 74.2778 40.7778 73.2222 40.3333 73.6667z"/>
<path style="fill:#67584c; stroke:none;" d="M58 73L59 74L58 73z"/>
<path style="fill:#514039; stroke:none;" d="M77 73L78 74L77 73z"/>
<path style="fill:#272f43; stroke:none;" d="M84 73L85 74L84 73z"/>
<path style="fill:#798997; stroke:none;" d="M97 73L97 90C98.8826 85.5135 98.8826 77.4865 97 73z"/>
<path style="fill:#d9cbc3; stroke:none;" d="M232 73L233 74L232 73z"/>
<path style="fill:#a5acbd; stroke:none;" d="M240 73L241 74L240 73z"/>
<path style="fill:#bdb6b6; stroke:none;" d="M255 73L256 74L255 73z"/>
<path style="fill:#6c6565; stroke:none;" d="M256 73L257 74L256 73z"/>
<path style="fill:#1c191a; stroke:none;" d="M257 73C258.248 73.6848 258.548 73.7488 260 74C258.752 73.3152 258.452 73.2512 257 73z"/>
<path style="fill:#4e4f54; stroke:none;" d="M260 73L261 74L260 73z"/>
<path style="fill:#bbbec8; stroke:none;" d="M261 73L262 74L261 73z"/>
<path style="fill:#b4b3b6; stroke:none;" d="M350 73L351 74L350 73z"/>
<path style="fill:#c3b4ab; stroke:none;" d="M357 73L358 74L357 73z"/>
<path style="fill:#767b90; stroke:none;" d="M364 73L365 74L364 73z"/>
<path style="fill:#a8acb8; stroke:none;" d="M415 73L416 74L415 73z"/>
<path style="fill:#938173; stroke:none;" d="M436 73L437 74L436 73z"/>
<path style="fill:#232a3b; stroke:none;" d="M461 73L462 74L461 73z"/>
<path style="fill:#b0b2af; stroke:none;" d="M490 73L491 74L490 73z"/>
<path style="fill:#beb2a4; stroke:none;" d="M497 73L498 74L497 73z"/>
<path style="fill:#6d7d88; stroke:none;" d="M504 73L505 74L504 73z"/>
<path style="fill:#cfc4b9; stroke:none;" d="M550 73L551 74L550 73z"/>
<path style="fill:#c6b9ab; stroke:none;" d="M58 74L59 75L58 74z"/>
<path style="fill:#a9b7c1; stroke:none;" d="M66 74L67 75L66 74z"/>
<path style="fill:#7c889b; stroke:none;" d="M84 74L85 75L84 74z"/>
<path style="fill:#3d2f26; stroke:none;" d="M232 74L233 75L232 74z"/>
<path style="fill:#8c8381; stroke:none;" d="M253 74L254 75L253 74z"/>
<path style="fill:#c2b8ab; stroke:none;" d="M315 74L316 75L315 74z"/>
<path style="fill:#bac6dd; stroke:none;" d="M321 74L322 75L321 74z"/>
<path style="fill:#3c2f21; stroke:none;" d="M358 74L359 75L358 74z"/>
<path style="fill:#97938d; stroke:none;" d="M411 74L412 75L411 74z"/>
<path style="fill:#bac8da; stroke:none;" d="M441 74L442 75L441 74z"/>
<path style="fill:#bbb1a4; stroke:none;" d="M455 74L456 75L455 74z"/>
<path style="fill:#bcc6d6; stroke:none;" d="M461 74L462 75L461 74z"/>
<path style="fill:#432f2c; stroke:none;" d="M498 74L499 75L498 74z"/>
<path style="fill:#44525c; stroke:none;" d="M556 74L557 75L556 74z"/>
<path style="fill:#665047; stroke:none;" d="M40.3333 75.6667C40.2778 75.7222 40.2222 76.7778 40.6667 76.3333C40.7223 76.2777 40.7778 75.2222 40.3333 75.6667z"/>
<path style="fill:#131e2b; stroke:none;" d="M48.3333 75.6667C48.2778 75.7222 48.2222 76.7778 48.6667 76.3333C48.7223 76.2777 48.7778 75.2222 48.3333 75.6667z"/>
<path style="fill:#3b4953; stroke:none;" d="M66 75L67 76L66 75z"/>
<path style="fill:#9ca3b7; stroke:none;" d="M239 75L240 76L239 75z"/>
<path style="fill:#cac5c0; stroke:none;" d="M251 75L252 76L251 75z"/>
<path style="fill:#e0d3c6; stroke:none;" d="M358 75L359 76L358 75z"/>
<path style="fill:#e5e4ed; stroke:none;" d="M412.667 75.3333C412.222 75.7779 413.278 75.7221 413.333 75.6667C413.778 75.2223 412.722 75.2777 412.667 75.3333z"/>
<path style="fill:#5e544a; stroke:none;" d="M435 75L436 76L435 75z"/>
<path style="fill:#cabfb4; stroke:none;" d="M549 75L550 76L549 75z"/>
<path style="fill:#8f7b77; stroke:none;" d="M76 76L77 77L76 76z"/>
<path style="fill:#5b5146; stroke:none;" d="M231 76L232 77L231 76z"/>
<path style="fill:#bbb2af; stroke:none;" d="M250 76L251 77L250 76z"/>
<path style="fill:#39404c; stroke:none;" d="M264 76L265 77L264 76z"/>
<path style="fill:#798092; stroke:none;" d="M320 76L321 77L320 76z"/>
<path style="fill:#757e87; stroke:none;" d="M365 76L366 77L365 76z"/>
<path style="fill:#d1c3bc; stroke:none;" d="M434 76L435 77L434 76z"/>
<path style="fill:#808999; stroke:none;" d="M440 76L441 77L440 76z"/>
<path style="fill:#808896; stroke:none;" d="M460 76L461 77L460 76z"/>
<path style="fill:#757c8d; stroke:none;" d="M505 76L506 77L505 76z"/>
<path style="fill:#3d4750; stroke:none;" d="M555 76L556 77L555 76z"/>
<path style="fill:#73808d; stroke:none;" d="M48.3333 77.6667C48.2778 77.7222 48.2222 78.7778 48.6667 78.3333C48.7222 78.2778 48.7778 77.2222 48.3333 77.6667z"/>
<path style="fill:#736055; stroke:none;" d="M59 77L60 78L59 77z"/>
<path style="fill:#1f2d3f; stroke:none;" d="M83 77L84 78L83 77z"/>
<path style="fill:#7a8496; stroke:none;" d="M238 77L239 78L238 77z"/>
<path style="fill:#dbd1c9; stroke:none;" d="M249 77L250 78L249 77z"/>
<path style="fill:#716d6d; stroke:none;" d="M256 77L257 78L256 77z"/>
<path style="fill:#fcfefd; stroke:none;" d="M257 77C252.633 83.534 252.005 91.3092 252 99C258.57 94.7827 261.513 83.6067 257 77z"/>
<path style="fill:#f4ebdd; stroke:none;" d="M302 77L302 85C303.161 82.2301 303.161 79.7699 302 77z"/>
<path style="fill:#7d8891; stroke:none;" d="M309 77L309 86C310.256 83.0059 310.256 79.9941 309 77z"/>
<path style="fill:#a69e91; stroke:none;" d="M314 77L315 78L314 77z"/>
<path style="fill:#73655b; stroke:none;" d="M359 77L360 78L359 77z"/>
<path style="fill:#aa9f92; stroke:none;" d="M454 77L455 78L454 77z"/>
<path style="fill:#756658; stroke:none;" d="M499 77L500 78L499 77z"/>
<path style="fill:#78899a; stroke:none;" d="M522 77L522 86C523.256 83.0059 523.256 79.9941 522 77z"/>
<path style="fill:#cdc2b7; stroke:none;" d="M548 77L549 78L548 77z"/>
<path style="fill:#d1beb2; stroke:none;" d="M59 78L60 79L59 78z"/>
<path style="fill:#93a3ad; stroke:none;" d="M67 78L68 79L67 78z"/>
<path style="fill:#798b99; stroke:none;" d="M83 78L84 79L83 78z"/>
<path style="fill:#bbbcb6; stroke:none;" d="M112.667 78.3333C112.222 78.7778 113.278 78.7222 113.333 78.6667C113.778 78.2222 112.722 78.2778 112.667 78.3333z"/>
<path style="fill:#aaa199; stroke:none;" d="M230 78L231 79L230 78z"/>
<path style="fill:#6f6f77; stroke:none;" d="M255 78L256 79L255 78z"/>
<path style="fill:#c8c0b7; stroke:none;" d="M258 78L259 79L258 78z"/>
<path style="fill:#8895a2; stroke:none;" d="M265 78L266 79L265 78z"/>
<path style="fill:#4c4437; stroke:none;" d="M314 78L315 79L314 78z"/>
<path style="fill:#6a798a; stroke:none;" d="M439 78L440 79L439 78z"/>
<path style="fill:#4c4237; stroke:none;" d="M454 78L455 79L454 78z"/>
<path style="fill:#f9ebe5; stroke:none;" d="M515 78L515 84C515.951 81.7147 515.951 80.2853 515 78z"/>
<path style="fill:#c5d2e1; stroke:none;" d="M48.3333 79.6667C48.2778 79.7222 48.2222 80.7778 48.6667 80.3333C48.7222 80.2778 48.7778 79.2222 48.3333 79.6667z"/>
<path style="fill:#293844; stroke:none;" d="M67 79L68 80L67 79z"/>
<path style="fill:#c1b0a1; stroke:none;" d="M75 79L76 80L75 79z"/>
<path style="fill:#000000; stroke:none;" d="M112 79C108.445 84.4437 104.36 95.0112 98 97C99.2441 100.51 96.4031 110.898 100.326 112.248C103.594 113.373 104.919 106.985 106.51 105.318C108.803 102.916 111.934 103.036 115 103C115.144 107.436 115.924 109.944 120 112C120 104.061 119.963 95.7634 118.101 88C117.11 83.8667 116.241 80.373 112 79z"/>
<path style="fill:#7f7f83; stroke:none;" d="M115 79L116 80L115 79z"/>
<path style="fill:#363e52; stroke:none;" d="M237 79L238 80L237 79z"/>
<path style="fill:#544538; stroke:none;" d="M248 79L249 80L248 79z"/>
<path style="fill:#2d3a49; stroke:none;" d="M265 79L266 80L265 79z"/>
<path style="fill:#788390; stroke:none;" d="M319.333 79.6667C319.278 79.7221 319.222 80.7778 319.667 80.3333C319.722 80.2777 319.778 79.2222 319.333 79.6667z"/>
<path style="fill:#cfd8e9; stroke:none;" d="M366.333 79.6667C366.278 79.7221 366.222 80.7778 366.667 80.3333C366.722 80.2777 366.778 79.2223 366.333 79.6667z"/>
<path style="fill:#837971; stroke:none;" d="M432 79L433 80L432 79z"/>
<path style="fill:#788390; stroke:none;" d="M459.333 79.6667C459.278 79.7221 459.222 80.7778 459.667 80.3333C459.722 80.2777 459.778 79.2222 459.333 79.6667z"/>
<path style="fill:#cdd4e6; stroke:none;" d="M506.333 79.6667C506.278 79.7222 506.222 80.7778 506.667 80.3333C506.722 80.2777 506.778 79.2222 506.333 79.6667z"/>
<path style="fill:#d0c6b8; stroke:none;" d="M547 79L548 80L547 79z"/>
<path style="fill:#a7b7c3; stroke:none;" d="M554 79L555 80L554 79z"/>
<path style="fill:#624f45; stroke:none;" d="M75 80L76 81L75 80z"/>
<path style="fill:#827674; stroke:none;" d="M111 80L112 81L111 80z"/>
<path style="fill:#bbc2d0; stroke:none;" d="M237 80L238 81L237 80z"/>
<path style="fill:#d5c3b8; stroke:none;" d="M247 80L248 81L247 80z"/>
<path style="fill:#5a6070; stroke:none;" d="M254 80L255 81L254 80z"/>
<path style="fill:#4f4633; stroke:none;" d="M259 80L260 81L259 80z"/>
<path style="fill:#b5b1a7; stroke:none;" d="M431 80L432 81L431 80z"/>
<path style="fill:#becbdb; stroke:none;" d="M438 80L439 81L438 80z"/>
<path style="fill:#827461; stroke:none;" d="M60 81L61 82L60 81z"/>
<path style="fill:#283546; stroke:none;" d="M82 81L83 82L82 81z"/>
<path style="fill:#b8a8a5; stroke:none;" d="M110 81L111 82L110 81z"/>
<path style="fill:#9ca5b3; stroke:none;" d="M116 81L117 82L116 81z"/>
<path style="fill:#938888; stroke:none;" d="M129 81L130 82L129 81z"/>
<path style="fill:#000000; stroke:none;" d="M125 84C126.894 91.7595 117.524 109.17 129 111C129.031 107.265 129.533 103.695 130 100C133.064 102.893 136.595 102.338 139.91 104.603C143.835 107.285 145.244 111.546 150 113C149.879 107.972 148.739 104.468 145 101C146.216 99.3101 147.241 98.0484 147.707 95.9753C150.91 81.7314 134.687 78.5738 125 84z"/>
<path style="fill:#666a6e; stroke:none;" d="M138 81L139 82L138 81z"/>
<path style="fill:#c8c9cd; stroke:none;" d="M139 81L140 82L139 81z"/>
<path style="fill:#aca89e; stroke:none;" d="M165 81L166 82L165 81z"/>
<path style="fill:#76736b; stroke:none;" d="M166 81L167 82L166 81z"/>
<path style="fill:#222023; stroke:none;" d="M167 81C168.506 81.683 169.315 81.8259 171 82C169.494 81.317 168.685 81.1741 167 81z"/>
<path style="fill:#4e515c; stroke:none;" d="M171 81L172 82L171 81z"/>
<path style="fill:#7e818b; stroke:none;" d="M172 81L173 82L172 81z"/>
<path style="fill:#a09691; stroke:none;" d="M195 81L196 82L195 81z"/>
<path style="fill:#000000; stroke:none;" d="M196 96L188 96C188.003 91.5777 188.447 87.3769 189 83L183 83L182 94L178 92C178.568 98.2686 181.042 109.458 188 110L188 102L196 102C196.023 103.986 198.313 114.688 201.397 108.663C203.092 105.353 201.499 100.459 201.17 97C200.78 92.9064 201.856 88.1038 200.682 84.1489C199.734 80.9564 196.266 80.9564 195.318 84.1489C194.242 87.7719 194.962 92.488 196 96z"/>
<path style="fill:#828b97; stroke:none;" d="M200 81L201 82L200 81z"/>
<path style="fill:#86786c; stroke:none;" d="M229 81L230 82L229 81z"/>
<path style="fill:#b6a89f; stroke:none;" d="M259 81L259 87C259.951 84.7147 259.951 83.2853 259 81z"/>
<path style="fill:#b1a69b; stroke:none;" d="M313 81L313 88C314.059 85.4657 314.059 83.5343 313 81z"/>
<path style="fill:#768493; stroke:none;" d="M366 81L366 86C366.83 83.9695 366.83 83.0305 366 81z"/>
<path style="fill:#cac8bd; stroke:none;" d="M430 81L431 82L430 81z"/>
<path style="fill:#65707d; stroke:none;" d="M437 81L438 82L437 81z"/>
<path style="fill:#bbb0a6; stroke:none;" d="M453 81L453 88C454.059 85.4657 454.059 83.5343 453 81z"/>
<path style="fill:#acb7c2; stroke:none;" d="M459.333 81.6667C459.278 81.7221 459.222 82.7778 459.667 82.3333C459.722 82.2777 459.778 81.2222 459.333 81.6667z"/>
<path style="fill:#7c8b97; stroke:none;" d="M506 81L506 86C506.83 83.9695 506.83 83.0305 506 81z"/>
<path style="fill:#737b89; stroke:none;" d="M553 81L554 82L553 81z"/>
<path style="fill:#ede4da; stroke:none;" d="M39 82L39 89C40.0595 86.4657 40.0595 84.5343 39 82z"/>
<path style="fill:#ded0be; stroke:none;" d="M60 82L61 83L60 82z"/>
<path style="fill:#788597; stroke:none;" d="M68 82L69 83L68 82z"/>
<path style="fill:#818e9d; stroke:none;" d="M82 82L83 83L82 82z"/>
<path style="fill:#252f41; stroke:none;" d="M116 82L117 83L116 82z"/>
<path style="fill:#655e56; stroke:none;" d="M127 82L128 83L127 82z"/>
<path style="fill:#b7bbc7; stroke:none;" d="M142 82L143 83L142 82z"/>
<path style="fill:#84817b; stroke:none;" d="M162 82L163 83L162 82z"/>
<path style="fill:#000000; stroke:none;" d="M176 104C171.502 104.038 165.209 106.588 161.109 104.503C153.659 100.715 159.214 90.8615 165.004 88.5856C168.297 87.2914 172.539 88.9022 176 89C175.745 81.2207 168.576 80.3427 162 83.0093C155.64 85.5884 151.614 92.2524 151.463 99C151.259 108.068 158.986 111.57 167 110.571C172.096 109.936 175.547 109.677 176 104z"/>
<path style="fill:#c2c3c8; stroke:none;" d="M184 82C185.248 82.6848 185.548 82.7488 187 83C185.752 82.3152 185.452 82.2512 184 82z"/>
<path style="fill:#d8cdc2; stroke:none;" d="M194 82L195 83L194 82z"/>
<path style="fill:#646d7b; stroke:none;" d="M236 82L237 83L236 82z"/>
<path style="fill:#d3c4bb; stroke:none;" d="M246 82L247 83L246 82z"/>
<path style="fill:#bdcbd4; stroke:none;" d="M319 82L319 86C319.71 84.2405 319.71 83.7595 319 82z"/>
<path style="fill:#605248; stroke:none;" d="M546 82L547 83L546 82z"/>
<path style="fill:#3c4656; stroke:none;" d="M47.3333 83.6667C47.2778 83.7222 47.2222 84.7778 47.6667 84.3333C47.7222 84.2778 47.7778 83.2222 47.3333 83.6667z"/>
<path style="fill:#1f2d3e; stroke:none;" d="M68 83L69 84L68 83z"/>
<path style="fill:#908172; stroke:none;" d="M74 83L75 84L74 83z"/>
<path style="fill:#dfd1ca; stroke:none;" d="M125 83L126 84L125 83z"/>
<path style="fill:#4f4c44; stroke:none;" d="M160 83L161 84L160 83z"/>
<path style="fill:#c2baad; stroke:none;" d="M182 83L183 84L182 83z"/>
<path style="fill:#8e8574; stroke:none;" d="M194.333 83.6667C194.278 83.7223 194.222 84.7777 194.667 84.3333C194.722 84.2778 194.778 83.2222 194.333 83.6667z"/>
<path style="fill:#4b3d34; stroke:none;" d="M246 83L247 84L246 83z"/>
<path style="fill:#6a7784; stroke:none;" d="M253 83L254 84L253 83z"/>
<path style="fill:#cfdbe1; stroke:none;" d="M459.333 83.6667C459.278 83.7221 459.222 84.7778 459.667 84.3333C459.722 84.2777 459.778 83.2222 459.333 83.6667z"/>
<path style="fill:#523f35; stroke:none;" d="M61 84L62 85L61 84z"/>
<path style="fill:#655041; stroke:none;" d="M90 84L90 92C91.1614 89.2302 91.1614 86.7698 90 84z"/>
<path style="fill:#a1afc1; stroke:none;" d="M117 84L118 85L117 84z"/>
<path style="fill:#c0b9ae; stroke:none;" d="M158 84L159 85L158 84z"/>
<path style="fill:#c3cad7; stroke:none;" d="M176 84L177 85L176 84z"/>
<path style="fill:#664d3d; stroke:none;" d="M182 84L182 88C182.71 86.2405 182.71 85.7595 182 84z"/>
<path style="fill:#b5a898; stroke:none;" d="M228 84L229 85L228 84z"/>
<path style="fill:#b4c4d2; stroke:none;" d="M253 84L254 85L253 84z"/>
<path style="fill:#cbcac5; stroke:none;" d="M427 84L428 85L427 84z"/>
<path style="fill:#bfc2cc; stroke:none;" d="M435 84L436 85L435 84z"/>
<path style="fill:#857a6f; stroke:none;" d="M545 84L546 85L545 84z"/>
<path style="fill:#a4aab8; stroke:none;" d="M552 84L553 85L552 84z"/>
<path style="fill:#86919b; stroke:none;" d="M47.3333 85.6667C47.2777 85.7222 47.2222 86.7778 47.6667 86.3333C47.7222 86.2778 47.7778 85.2222 47.3333 85.6667z"/>
<path style="fill:#baa79f; stroke:none;" d="M61 85L62 86L61 85z"/>
<path style="fill:#b5c2d1; stroke:none;" d="M69 85L70 86L69 85z"/>
<path style="fill:#2e3845; stroke:none;" d="M81 85L82 86L81 85z"/>
<path style="fill:#93897b; stroke:none;" d="M107 85L108 86L107 85z"/>
<path style="fill:#303f50; stroke:none;" d="M117 85L118 86L117 85z"/>
<path style="fill:#7e786a; stroke:none;" d="M157 85L158 86L157 85z"/>
<path style="fill:#87919b; stroke:none;" d="M176.333 85.6667C176.278 85.7222 176.222 86.7778 176.667 86.3333C176.722 86.2778 176.778 85.2222 176.333 85.6667z"/>
<path style="fill:#b5a899; stroke:none;" d="M194 85L194 88C194.696 86.4463 194.696 86.5537 194 85z"/>
<path style="fill:#6a5d4e; stroke:none;" d="M228 85L229 86L228 85z"/>
<path style="fill:#283242; stroke:none;" d="M235 85L236 86L235 85z"/>
<path style="fill:#ada297; stroke:none;" d="M245 85L246 86L245 85z"/>
<path style="fill:#bebfb6; stroke:none;" d="M426 85L427 86L426 85z"/>
<path style="fill:#989ba5; stroke:none;" d="M434 85L435 86L434 85z"/>
<path style="fill:#9fabb1; stroke:none;" d="M459 85L460 86L459 85z"/>
<path style="fill:#596373; stroke:none;" d="M69 86L70 87L69 86z"/>
<path style="fill:#c2b2a4; stroke:none;" d="M73 86L74 87L73 86z"/>
<path style="fill:#95a0ad; stroke:none;" d="M81 86L82 87L81 86z"/>
<path style="fill:#4c5155; stroke:none;" d="M129 86L130 87L129 86z"/>
<path style="fill:#ffffff; stroke:none;" d="M130 86C131.948 89.6815 131.17 92.9704 131 97C134.579 96.3452 137.438 96.1813 141 97C142.848 88.8385 137.397 86.3388 130 86z"/>
<path style="fill:#bcb7b0; stroke:none;" d="M135 86L136 87L135 86z"/>
<path style="fill:#535048; stroke:none;" d="M136 86L137 87L136 86z"/>
<path style="fill:#615b4b; stroke:none;" d="M156 86L157 87L156 86z"/>
<path style="fill:#778496; stroke:none;" d="M188 86L188 91C188.83 88.9695 188.83 88.0305 188 86z"/>
<path style="fill:#778091; stroke:none;" d="M235 86L236 87L235 86z"/>
<path style="fill:#4f453a; stroke:none;" d="M245 86L246 87L245 86z"/>
<path style="fill:#e4dede; stroke:none;" d="M270.667 86.3333C270.222 86.7778 271.278 86.7222 271.333 86.6667C271.778 86.2222 270.722 86.2778 270.667 86.3333z"/>
<path style="fill:#1a283a; stroke:none;" d="M309 86L309 94C310.161 91.2301 310.161 88.7699 309 86z"/>
<path style="fill:#5f6c79; stroke:none;" d="M319 86L320 87L319 86z"/>
<path style="fill:#cbbdb3; stroke:none;" d="M359 86L360 87L359 86z"/>
<path style="fill:#c9d6e3; stroke:none;" d="M366 86L366 89C366.696 87.4464 366.696 87.5536 366 86z"/>
<path style="fill:#b3b3ab; stroke:none;" d="M425 86L426 87L425 86z"/>
<path style="fill:#80858e; stroke:none;" d="M433 86L434 87L433 86z"/>
<path style="fill:#68727b; stroke:none;" d="M459 86L460 87L459 86z"/>
<path style="fill:#d3c0b8; stroke:none;" d="M499 86L500 87L499 86z"/>
<path style="fill:#c4d7e3; stroke:none;" d="M506 86L506 89C506.696 87.4464 506.696 87.5536 506 86z"/>
<path style="fill:#1c273e; stroke:none;" d="M522 86L522 94C523.161 91.2302 523.161 88.7698 522 86z"/>
<path style="fill:#b1a69a; stroke:none;" d="M544 86L545 87L544 86z"/>
<path style="fill:#303d4d; stroke:none;" d="M551 86L552 87L551 86z"/>
<path style="fill:#c2cdd6; stroke:none;" d="M47 87L47 90C47.6961 88.4463 47.6961 88.5537 47 87z"/>
<path style="fill:#5a4a3e; stroke:none;" d="M73 87L74 88L73 87z"/>
<path style="fill:#5d4f45; stroke:none;" d="M106 87L107 88L106 87z"/>
<path style="fill:#23383c; stroke:none;" d="M131 87L132 88L131 87z"/>
<path style="fill:#c2b9b8; stroke:none;" d="M138 87L139 88L138 87z"/>
<path style="fill:#757e8b; stroke:none;" d="M147 87L148 88L147 87z"/>
<path style="fill:#6f6956; stroke:none;" d="M155 87L156 88L155 87z"/>
<path style="fill:#bcbcbf; stroke:none;" d="M166 87L167 88L166 87z"/>
<path style="fill:#bfcbdb; stroke:none;" d="M235 87L236 88L235 87z"/>
<path style="fill:#647284; stroke:none;" d="M252 87L253 88L252 87z"/>
<path style="fill:#73635b; stroke:none;" d="M259 87L260 88L259 87z"/>
<path style="fill:#000000; stroke:none;" d="M270 87C270.858 98.2851 283.073 94.0052 291 94L292 88C284.13 88.0217 277.775 88.7772 270 87z"/>
<path style="fill:#716f70; stroke:none;" d="M272 87L273 88L272 87z"/>
<path style="fill:#bbbbbd; stroke:none;" d="M287 87C288.248 87.6848 288.548 87.7488 290 88C288.752 87.3152 288.452 87.2512 287 87z"/>
<path style="fill:#6f7b7f; stroke:none;" d="M290 87L291 88L290 87z"/>
<path style="fill:#b1c1c4; stroke:none;" d="M291 87L292 88L291 87z"/>
<path style="fill:#000010; stroke:none;" d="M308 87C307.384 94.3795 308.734 101.718 307 109C311.849 104.785 310.316 92.3686 308 87z"/>
<path style="fill:#6e6158; stroke:none;" d="M359 87L360 88L359 87z"/>
<path style="fill:#aaa79f; stroke:none;" d="M424 87L425 88L424 87z"/>
<path style="fill:#838791; stroke:none;" d="M432 87L433 88L432 87z"/>
<path style="fill:#6f5d55; stroke:none;" d="M499 87L500 88L499 87z"/>
<path style="fill:#a0adbc; stroke:none;" d="M551 87L552 88L551 87z"/>
<path style="fill:#a4958d; stroke:none;" d="M62 88L63 89L62 88z"/>
<path style="fill:#daccc4; stroke:none;" d="M105 88L106 89L105 88z"/>
<path style="fill:#919bab; stroke:none;" d="M118 88L119 89L118 88z"/>
<path style="fill:#c3bbad; stroke:none;" d="M154 88L155 89L154 88z"/>
<path style="fill:#c9d8de; stroke:none;" d="M201 88L201 92C201.71 90.2406 201.71 89.7595 201 88z"/>
<path style="fill:#c5d3e1; stroke:none;" d="M252.333 88.6667C252.278 88.7222 252.222 89.7778 252.667 89.3333C252.722 89.2777 252.778 88.2222 252.333 88.6667z"/>
<path style="fill:#42475f; stroke:none;" d="M265 88L266 89L265 88z"/>
<path style="fill:#9b9c9f; stroke:none;" d="M275 88L276 89L275 88z"/>
<path style="fill:#bfbfc1; stroke:none;" d="M280 88C281.248 88.6848 281.548 88.7488 283 89C281.752 88.3152 281.452 88.2512 280 88z"/>
<path style="fill:#4a4849; stroke:none;" d="M283 88L284 89L283 88z"/>
<path style="fill:#a49f99; stroke:none;" d="M423 88L424 89L423 88z"/>
<path style="fill:#7c8188; stroke:none;" d="M431 88L432 89L431 88z"/>
<path style="fill:#eee4d4; stroke:none;" d="M453.333 88.6667C453.278 88.7222 453.222 89.7778 453.667 89.3333C453.722 89.2777 453.778 88.2223 453.333 88.6667z"/>
<path style="fill:#a59b91; stroke:none;" d="M39 89L39 92C39.6961 90.4463 39.6961 90.5537 39 89z"/>
<path style="fill:#97a0aa; stroke:none;" d="M70 89L71 90L70 89z"/>
<path style="fill:#4e5869; stroke:none;" d="M80 89L81 90L80 89z"/>
<path style="fill:#556273; stroke:none;" d="M118 89L119 90L118 89z"/>
<path style="fill:#ddcabf; stroke:none;" d="M125 89L126 90L125 89z"/>
<path style="fill:#384a5b; stroke:none;" d="M131 89L132 90L131 89z"/>
<path style="fill:#a9b6c6; stroke:none;" d="M148 89L149 90L148 89z"/>
<path style="fill:#9ba0a6; stroke:none;" d="M162 89L163 90L162 89z"/>
<path style="fill:#cbc9ce; stroke:none;" d="M172 89C173.248 89.6848 173.548 89.7488 175 90C173.752 89.3152 173.452 89.2512 172 89z"/>
<path style="fill:#b5a899; stroke:none;" d="M227 89L227 92C227.696 90.4463 227.696 90.5537 227 89z"/>
<path style="fill:#b7a49a; stroke:none;" d="M244 89L245 90L244 89z"/>
<path style="fill:#9fa4ba; stroke:none;" d="M265 89L266 90L265 89z"/>
<path style="fill:#253345; stroke:none;" d="M291 89L291 92C291.696 90.4463 291.696 90.5536 291 89z"/>
<path style="fill:#9198a6; stroke:none;" d="M320 89L321 90L320 89z"/>
<path style="fill:#8f877e; stroke:none;" d="M422 89L423 90L422 89z"/>
<path style="fill:#70787e; stroke:none;" d="M430 89L431 90L430 89z"/>
<path style="fill:#9599ad; stroke:none;" d="M460 89L461 90L460 89z"/>
<path style="fill:#80786c; stroke:none;" d="M543 89L544 90L543 89z"/>
<path style="fill:#40444c; stroke:none;" d="M70 90L71 91L70 90z"/>
<path style="fill:#918c86; stroke:none;" d="M72 90L73 91L72 90z"/>
<path style="fill:#b7c2cf; stroke:none;" d="M80 90L81 91L80 90z"/>
<path style="fill:#c4d3d9; stroke:none;" d="M97 90L97 97L101 97C99.7517 96.3152 99.4516 96.2512 98 96C97.9528 93.7472 97.8742 92.0521 97 90z"/>
<path style="fill:#d5c2ba; stroke:none;" d="M104 90L105 91L104 90z"/>
<path style="fill:#ffffff; stroke:none;" d="M112 90L110 96L114 96C113.439 93.8976 112.951 91.9407 112 90z"/>
<path style="fill:#433638; stroke:none;" d="M113 90L114 91L113 90z"/>
<path style="fill:#7d635b; stroke:none;" d="M125 90L126 91L125 90z"/>
<path style="fill:#c1c9d5; stroke:none;" d="M131.333 90.6667C131.278 90.7222 131.222 91.7778 131.667 91.3333C131.722 91.2777 131.778 90.2222 131.333 90.6667z"/>
<path style="fill:#505e70; stroke:none;" d="M148.333 90.6667C148.278 90.7222 148.222 91.7778 148.667 91.3333C148.722 91.2777 148.778 90.2222 148.333 90.6667z"/>
<path style="fill:#897a71; stroke:none;" d="M153 90L154 91L153 90z"/>
<path style="fill:#b6bec4; stroke:none;" d="M161 90L162 91L161 90z"/>
<path style="fill:#313f51; stroke:none;" d="M234 90L235 91L234 90z"/>
<path style="fill:#645147; stroke:none;" d="M244.333 90.6667C244.278 90.7222 244.222 91.7778 244.667 91.3333C244.722 91.2778 244.778 90.2222 244.333 90.6667z"/>
<path style="fill:#726357; stroke:none;" d="M258 90L259 91L258 90z"/>
<path style="fill:#74695e; stroke:none;" d="M358 90L359 91L358 90z"/>
<path style="fill:#3a4456; stroke:none;" d="M365 90L366 91L365 90z"/>
<path style="fill:#938c83; stroke:none;" d="M421 90L422 91L421 90z"/>
<path style="fill:#777f85; stroke:none;" d="M429 90L430 91L429 90z"/>
<path style="fill:#72635a; stroke:none;" d="M498 90L499 91L498 90z"/>
<path style="fill:#3a464c; stroke:none;" d="M505 90L506 91L505 90z"/>
<path style="fill:#6c7b87; stroke:none;" d="M550 90L551 91L550 90z"/>
<path style="fill:#aba196; stroke:none;" d="M63 91L64 92L63 91z"/>
<path style="fill:#85878c; stroke:none;" d="M111 91L112 92L111 91z"/>
<path style="fill:#766b66; stroke:none;" d="M113 91L114 92L113 91z"/>
<path style="fill:#635141; stroke:none;" d="M142 91L142 94C142.696 92.4463 142.696 92.5537 142 91z"/>
<path style="fill:#a1aab4; stroke:none;" d="M160 91L161 92L160 91z"/>
<path style="fill:#c9d3da; stroke:none;" d="M188 91L188 96C188.83 93.9695 188.83 93.0305 188 91z"/>
<path style="fill:#798896; stroke:none;" d="M234 91L234 94C234.696 92.4463 234.696 92.5537 234 91z"/>
<path style="fill:#5c5247; stroke:none;" d="M314 91L315 92L314 91z"/>
<path style="fill:#a5a8b8; stroke:none;" d="M321 91L322 92L321 91z"/>
<path style="fill:#a5aec1; stroke:none;" d="M365 91L366 92L365 91z"/>
<path style="fill:#716961; stroke:none;" d="M420 91L421 92L420 91z"/>
<path style="fill:#777c82; stroke:none;" d="M428 91L429 92L428 91z"/>
<path style="fill:#5d5143; stroke:none;" d="M454 91L455 92L454 91z"/>
<path style="fill:#acafc2; stroke:none;" d="M461 91L462 92L461 91z"/>
<path style="fill:#a3aeb8; stroke:none;" d="M505 91L506 92L505 91z"/>
<path style="fill:#b5c3cc; stroke:none;" d="M550 91L551 92L550 91z"/>
<path style="fill:#efe5db; stroke:none;" d="M39 92L39 99C40.0595 96.4657 40.0595 94.5343 39 92z"/>
<path style="fill:#818284; stroke:none;" d="M71 92L72 93L71 92z"/>
<path style="fill:#333a4c; stroke:none;" d="M79 92L80 93L79 92z"/>
<path style="fill:#b9aaa1; stroke:none;" d="M90 92L90 99C91.0595 96.4657 91.0595 94.5343 90 92z"/>
<path style="fill:#c3b4ac; stroke:none;" d="M103 92L104 93L103 92z"/>
<path style="fill:#b3aa9f; stroke:none;" d="M113 92L114 93L113 92z"/>
<path style="fill:#253345; stroke:none;" d="M148 92L148 95C148.696 93.4463 148.696 93.5537 148 92z"/>
<path style="fill:#a19089; stroke:none;" d="M152 92L153 93L152 92z"/>
<path style="fill:#424f5c; stroke:none;" d="M159 92L160 93L159 92z"/>
<path style="fill:#b7afac; stroke:none;" d="M179 92L180 93L179 92z"/>
<path style="fill:#74818e; stroke:none;" d="M201 92L201 97C201.83 94.9695 201.83 94.0305 201 92z"/>
<path style="fill:#685645; stroke:none;" d="M227 92L227 98C227.951 95.7147 227.951 94.2853 227 92z"/>
<path style="fill:#928a7b; stroke:none;" d="M257 92L258 93L257 92z"/>
<path style="fill:#84899e; stroke:none;" d="M264 92L265 93L264 92z"/>
<path style="fill:#686156; stroke:none;" d="M270 92L271 93L270 92z"/>
<path style="fill:#77818b; stroke:none;" d="M291.333 92.6667C291.278 92.7222 291.222 93.7778 291.667 93.3333C291.722 93.2777 291.778 92.2223 291.333 92.6667z"/>
<path style="fill:#614f3e; stroke:none;" d="M303 92L303 100C304.161 97.2301 304.161 94.7699 303 92z"/>
<path style="fill:#c4b9af; stroke:none;" d="M314 92L315 93L314 92z"/>
<path style="fill:#827b72; stroke:none;" d="M357 92L358 93L357 92z"/>
<path style="fill:#615951; stroke:none;" d="M419 92L420 93L419 92z"/>
<path style="fill:#7b8087; stroke:none;" d="M427 92L428 93L427 92z"/>
<path style="fill:#c2b4ab; stroke:none;" d="M454 92L455 93L454 92z"/>
<path style="fill:#7d766c; stroke:none;" d="M497 92L498 93L497 92z"/>
<path style="fill:#635240; stroke:none;" d="M516 92L516 100C517.161 97.2302 517.161 94.7698 516 92z"/>
<path style="fill:#93847a; stroke:none;" d="M542 92L543 93L542 92z"/>
<path style="fill:#162436; stroke:none;" d="M46 93L46 98C46.8299 95.9695 46.8299 95.0305 46 93z"/>
<path style="fill:#5f5148; stroke:none;" d="M64 93L65 94L64 93z"/>
<path style="fill:#a2a8ba; stroke:none;" d="M79 93L80 94L79 93z"/>
<path style="fill:#676f7a; stroke:none;" d="M110 93L111 94L110 93z"/>
<path style="fill:#ece5dc; stroke:none;" d="M113.333 93.6667C113.278 93.7223 113.222 94.7778 113.667 94.3333C113.722 94.2778 113.778 93.2222 113.333 93.6667z"/>
<path style="fill:#c7d6de; stroke:none;" d="M119.333 93.6667C119.278 93.7223 119.222 94.7778 119.667 94.3333C119.722 94.2778 119.778 93.2222 119.333 93.6667z"/>
<path style="fill:#bbaca2; stroke:none;" d="M124 93L125 94L124 93z"/>
<path style="fill:#635a57; stroke:none;" d="M181 93L182 94L181 93z"/>
<path style="fill:#59544e; stroke:none;" d="M271 93L272 94L271 93z"/>
<path style="fill:#7e8590; stroke:none;" d="M322 93L323 94L322 93z"/>
<path style="fill:#21313c; stroke:none;" d="M364 93L365 94L364 93z"/>
<path style="fill:#595049; stroke:none;" d="M418 93L419 94L418 93z"/>
<path style="fill:#7e848a; stroke:none;" d="M426 93L427 94L426 93z"/>
<path style="fill:#868d9b; stroke:none;" d="M462 93L463 94L462 93z"/>
<path style="fill:#2d374a; stroke:none;" d="M504 93L505 94L504 93z"/>
<path style="fill:#c9b9b3; stroke:none;" d="M102 94L103 95L102 94z"/>
<path style="fill:#6d6053; stroke:none;" d="M124 94L125 95L124 94z"/>
<path style="fill:#1f293c; stroke:none;" d="M130.333 94.6667C130.278 94.7222 130.222 95.7778 130.667 95.3333C130.722 95.2777 130.778 94.2222 130.333 94.6667z"/>
<path style="fill:#475463; stroke:none;" d="M158 94L159 95L158 94z"/>
<path style="fill:#c6d4dd; stroke:none;" d="M234 94L234 98C234.71 96.2405 234.71 95.7595 234 94z"/>
<path style="fill:#22293b; stroke:none;" d="M251.333 94.6667C251.278 94.7222 251.222 95.7778 251.667 95.3333C251.722 95.2777 251.778 94.2222 251.333 94.6667z"/>
<path style="fill:#5f564e; stroke:none;" d="M256 94L257 95L256 94z"/>
<path style="fill:#515f72; stroke:none;" d="M263 94L264 95L263 94z"/>
<path style="fill:#8e8986; stroke:none;" d="M273 94L274 95L273 94z"/>
<path style="fill:#303032; stroke:none;" d="M281 94L282 95L281 94z"/>
<path style="fill:#797a7b; stroke:none;" d="M282.667 94.3333C282.222 94.7778 283.278 94.7222 283.333 94.6667C283.778 94.2222 282.722 94.2778 282.667 94.3333z"/>
<path style="fill:#c0c0c2; stroke:none;" d="M284 94C285.248 94.6848 285.548 94.7488 287 95C285.752 94.3152 285.452 94.2512 284 94z"/>
<path style="fill:#7b8083; stroke:none;" d="M290 94L291 95L290 94z"/>
<path style="fill:#585044; stroke:none;" d="M315 94L316 95L315 94z"/>
<path style="fill:#453d35; stroke:none;" d="M356 94L357 95L356 94z"/>
<path style="fill:#bac9d2; stroke:none;" d="M364 94L365 95L364 94z"/>
<path style="fill:#514339; stroke:none;" d="M417 94L418 95L417 94z"/>
<path style="fill:#868e94; stroke:none;" d="M425 94L426 95L425 94z"/>
<path style="fill:#5f534d; stroke:none;" d="M455 94L456 95L455 94z"/>
<path style="fill:#4f483f; stroke:none;" d="M496 94L497 95L496 94z"/>
<path style="fill:#b7c0d5; stroke:none;" d="M504 94L505 95L504 94z"/>
<path style="fill:#636b7a; stroke:none;" d="M549 94L550 95L549 94z"/>
<path style="fill:#57616f; stroke:none;" d="M78 95L79 96L78 95z"/>
<path style="fill:#2d313d; stroke:none;" d="M109 95L110 96L109 95z"/>
<path style="fill:#828f9f; stroke:none;" d="M119.333 95.6667C119.278 95.7223 119.222 96.7778 119.667 96.3333C119.722 96.2778 119.778 95.2222 119.333 95.6667z"/>
<path style="fill:#cbc3b7; stroke:none;" d="M141 95L142 96L141 95z"/>
<path style="fill:#5c6771; stroke:none;" d="M148 95L149 96L148 95z"/>
<path style="fill:#bcaca5; stroke:none;" d="M151 95L152 96L151 95z"/>
<path style="fill:#726159; stroke:none;" d="M195 95L196 96L195 95z"/>
<path style="fill:#dad2c8; stroke:none;" d="M255 95L256 96L255 95z"/>
<path style="fill:#c0bcae; stroke:none;" d="M355 95L356 96L355 95z"/>
<path style="fill:#3f352a; stroke:none;" d="M416 95L417 96L416 95z"/>
<path style="fill:#8e959e; stroke:none;" d="M424 95L425 96L424 95z"/>
<path style="fill:#bbb6b0; stroke:none;" d="M495 95L496 96L495 95z"/>
<path style="fill:#c0b3a3; stroke:none;" d="M541 95L542 96L541 95z"/>
<path style="fill:#acb7c1; stroke:none;" d="M549 95L550 96L549 95z"/>
<path style="fill:#cfbfba; stroke:none;" d="M65 96L66 97L65 96z"/>
<path style="fill:#b5aba6; stroke:none;" d="M101 96L102 97L101 96z"/>
<path style="fill:#687077; stroke:none;" d="M110 96C111.506 96.683 112.315 96.8259 114 97C112.494 96.317 111.685 96.1741 110 96z"/>
<path style="fill:#9395a2; stroke:none;" d="M130 96L130 99L132 98C131.455 96.3648 131.635 96.545 130 96z"/>
<path style="fill:#5c5c5e; stroke:none;" d="M133 96L134 97L133 96z"/>
<path style="fill:#4e4d54; stroke:none;" d="M138 96L139 97L138 96z"/>
<path style="fill:#aba9ad; stroke:none;" d="M139 96L140 97L139 96z"/>
<path style="fill:#c4ced5; stroke:none;" d="M148 96L149 97L148 96z"/>
<path style="fill:#655348; stroke:none;" d="M151.333 96.6667C151.278 96.7222 151.222 97.7778 151.667 97.3333C151.722 97.2777 151.778 96.2222 151.333 96.6667z"/>
<path style="fill:#192836; stroke:none;" d="M157 96L157 99C157.696 97.4463 157.696 97.5537 157 96z"/>
<path style="fill:#6a574c; stroke:none;" d="M178.333 96.6667C178.278 96.7222 178.222 97.7778 178.667 97.3333C178.722 97.2777 178.778 96.2222 178.333 96.6667z"/>
<path style="fill:#6b7381; stroke:none;" d="M262 96L263 97L262 96z"/>
<path style="fill:#62514c; stroke:none;" d="M316 96L317 97L316 96z"/>
<path style="fill:#bbc3cf; stroke:none;" d="M363 96L364 97L363 96z"/>
<path style="fill:#9ca3ac; stroke:none;" d="M423 96L424 97L423 96z"/>
<path style="fill:#645c4f; stroke:none;" d="M456 96L457 97L456 96z"/>
<path style="fill:#353b48; stroke:none;" d="M464 96L465 97L464 96z"/>
<path style="fill:#b8bfd1; stroke:none;" d="M503 96L504 97L503 96z"/>
<path style="fill:#6c6257; stroke:none;" d="M541 96L542 97L541 96z"/>
<path style="fill:#5b6875; stroke:none;" d="M77 97L78 98L77 97z"/>
<path style="fill:#6f6c6f; stroke:none;" d="M97 97L98 98L97 97z"/>
<path style="fill:#1c283c; stroke:none;" d="M119.333 97.6667C119.278 97.7222 119.222 98.7778 119.667 98.3333C119.722 98.2778 119.778 97.2222 119.333 97.6667z"/>
<path style="fill:#d7cab8; stroke:none;" d="M123 97L124 98L123 97z"/>
<path style="fill:#26303a; stroke:none;" d="M201 97L201 100C201.696 98.4463 201.696 98.5537 201 97z"/>
<path style="fill:#635243; stroke:none;" d="M244 97L244 100C244.696 98.4463 244.696 98.5537 244 97z"/>
<path style="fill:#867a79; stroke:none;" d="M254 97L255 98L254 97z"/>
<path style="fill:#29313b; stroke:none;" d="M325 97L326 98L325 97z"/>
<path style="fill:#aaafb6; stroke:none;" d="M422 97L423 98L422 97z"/>
<path style="fill:#2d3643; stroke:none;" d="M465 97L466 98L465 97z"/>
<path style="fill:#7e8993; stroke:none;" d="M46 98L46 103C46.8299 100.97 46.8299 100.03 46 98z"/>
<path style="fill:#d8c9bf; stroke:none;" d="M66 98L67 99L66 98z"/>
<path style="fill:#bdbcc3; stroke:none;" d="M97 98L98 99L97 98z"/>
<path style="fill:#968678; stroke:none;" d="M123 98L124 99L123 98z"/>
<path style="fill:#ada093; stroke:none;" d="M227.333 98.6667C227.278 98.7222 227.222 99.7778 227.667 99.3333C227.722 99.2777 227.778 98.2222 227.333 98.6667z"/>
<path style="fill:#7f8c99; stroke:none;" d="M234.333 98.6667C234.278 98.7222 234.222 99.7778 234.667 99.3333C234.722 99.2777 234.778 98.2222 234.333 98.6667z"/>
<path style="fill:#c7cfd9; stroke:none;" d="M261 98L262 99L261 98z"/>
<path style="fill:#ac9e96; stroke:none;" d="M317 98L318 99L317 98z"/>
<path style="fill:#d6d2c8; stroke:none;" d="M352 98L353 99L352 98z"/>
<path style="fill:#c3c4ca; stroke:none;" d="M421 98L421 100L423 100C422.455 98.3648 422.635 98.545 421 98z"/>
<path style="fill:#7c7c85; stroke:none;" d="M449.667 98.3333C449.222 98.7777 450.278 98.7222 450.333 98.6667C450.778 98.2222 449.722 98.2778 449.667 98.3333z"/>
<path style="fill:#afa59a; stroke:none;" d="M457 98L458 99L457 98z"/>
<path style="fill:#4d4237; stroke:none;" d="M67 99L68 100L67 99z"/>
<path style="fill:#9da8b3; stroke:none;" d="M76 99L77 100L76 99z"/>
<path style="fill:#f1e7dc; stroke:none;" d="M90 99L90 103C90.7102 101.241 90.7102 100.759 90 99z"/>
<path style="fill:#ffffff; stroke:none;" d="M97 99L97 107C98.7884 104.279 99.3996 102.218 99 99L97 99z"/>
<path style="fill:#59544d; stroke:none;" d="M99 99L100 100L99 99z"/>
<path style="fill:#695849; stroke:none;" d="M123 99L123 102C123.696 100.446 123.696 100.554 123 99z"/>
<path style="fill:#a3a09a; stroke:none;" d="M134 99L135 100L134 99z"/>
<path style="fill:#ffffff; stroke:none;" d="M135.333 99.6667C135.278 99.7222 135.222 100.778 135.667 100.333C135.722 100.278 135.778 99.2222 135.333 99.6667z"/>
<path style="fill:#a1a19e; stroke:none;" d="M136 99L137 100L136 99z"/>
<path style="fill:#c6d1db; stroke:none;" d="M146 99L147 100L146 99z"/>
<path style="fill:#687d8c; stroke:none;" d="M157.333 99.6667C157.278 99.7222 157.222 100.778 157.667 100.333C157.722 100.278 157.778 99.2222 157.333 99.6667z"/>
<path style="fill:#c2b7b0; stroke:none;" d="M179 99L180 100L179 99z"/>
<path style="fill:#a4a5a9; stroke:none;" d="M252 99L253 100L252 99z"/>
<path style="fill:#6a717a; stroke:none;" d="M260 99L261 100L260 99z"/>
<path style="fill:#b0b6ba; stroke:none;" d="M328 99L329 100L328 99z"/>
<path style="fill:#a8a5a0; stroke:none;" d="M351 99L352 100L351 99z"/>
<path style="fill:#61697a; stroke:none;" d="M361 99L362 100L361 99z"/>
<path style="fill:#989492; stroke:none;" d="M447 99L448 100L447 99z"/>
<path style="fill:#352b20; stroke:none;" d="M458 99L459 100L458 99z"/>
<path style="fill:#b6b9be; stroke:none;" d="M468 99L469 100L468 99z"/>
<path style="fill:#aca8a1; stroke:none;" d="M491 99L492 100L491 99z"/>
<path style="fill:#616774; stroke:none;" d="M501 99L502 100L501 99z"/>
<path style="fill:#3b4953; stroke:none;" d="M548 99L549 100L548 99z"/>
<path style="fill:#586269; stroke:none;" d="M75 100L76 101L75 100z"/>
<path style="fill:#bbb9c8; stroke:none;" d="M130 100L131 101L130 100z"/>
<path style="fill:#d2cfc9; stroke:none;" d="M134 100L135 101L134 100z"/>
<path style="fill:#cecec9; stroke:none;" d="M136 100L137 101L136 100z"/>
<path style="fill:#30313f; stroke:none;" d="M145 100L146 101L145 100z"/>
<path style="fill:#b7aa9d; stroke:none;" d="M244.333 100.667C244.278 100.722 244.222 101.778 244.667 101.333C244.722 101.278 244.778 100.222 244.333 100.667z"/>
<path style="fill:#b5aba1; stroke:none;" d="M303 100L303 109C304.256 106.006 304.256 102.994 303 100z"/>
<path style="fill:#474a50; stroke:none;" d="M329 100L330 101L329 100z"/>
<path style="fill:#474641; stroke:none;" d="M350 100L351 101L350 100z"/>
<path style="fill:#63676b; stroke:none;" d="M428 100L429 101L428 100z"/>
<path style="fill:#adb1b6; stroke:none;" d="M429 100L430 101L429 100z"/>
<path style="fill:#c9c5c2; stroke:none;" d="M445 100L446 101L445 100z"/>
<path style="fill:#45494e; stroke:none;" d="M469 100L470 101L469 100z"/>
<path style="fill:#514c48; stroke:none;" d="M490 100L491 101L490 100z"/>
<path style="fill:#b3a8a1; stroke:none;" d="M516 100L516 109C517.256 106.006 517.256 102.994 516 100z"/>
<path style="fill:#ae9f91; stroke:none;" d="M540 100L541 101L540 100z"/>
<path style="fill:#75828f; stroke:none;" d="M548 100L549 101L548 100z"/>
<path style="fill:#6a7178; stroke:none;" d="M74 101L75 102L74 101z"/>
<path style="fill:#614c3c; stroke:none;" d="M151.333 101.667C151.278 101.722 151.222 102.778 151.667 102.333C151.722 102.278 151.778 101.222 151.333 101.667z"/>
<path style="fill:#233543; stroke:none;" d="M157 101L158 102L157 101z"/>
<path style="fill:#69564f; stroke:none;" d="M181 101L182 102L181 101z"/>
<path style="fill:#dad2c7; stroke:none;" d="M319 101L320 102L319 101z"/>
<path style="fill:#888d90; stroke:none;" d="M331 101L332 102L331 101z"/>
<path style="fill:#8e8b86; stroke:none;" d="M348 101L349 102L348 101z"/>
<path style="fill:#8a8781; stroke:none;" d="M409 101L410 102L409 101z"/>
<path style="fill:#929399; stroke:none;" d="M432 101L433 102L432 101z"/>
<path style="fill:#b1adac; stroke:none;" d="M443 101L444 102L443 101z"/>
<path style="fill:#a4a8b6; stroke:none;" d="M450 101L451 102L450 101z"/>
<path style="fill:#d4cdc4; stroke:none;" d="M459 101L460 102L459 101z"/>
<path style="fill:#83868b; stroke:none;" d="M471 101L472 102L471 101z"/>
<path style="fill:#8a857e; stroke:none;" d="M488 101L489 102L488 101z"/>
<path style="fill:#533f30; stroke:none;" d="M540.333 101.667C540.278 101.722 540.222 102.778 540.667 102.333C540.722 102.278 540.778 101.222 540.333 101.667z"/>
<path style="fill:#c7d0e1; stroke:none;" d="M548.333 101.667C548.278 101.722 548.222 102.778 548.667 102.333C548.722 102.278 548.778 101.222 548.333 101.667z"/>
<path style="fill:#514236; stroke:none;" d="M40 102L41 103L40 102z"/>
<path style="fill:#bfc0c2; stroke:none;" d="M71.6667 102.333C71.2222 102.778 72.2778 102.722 72.3333 102.667C72.7778 102.222 71.7222 102.278 71.6667 102.333z"/>
<path style="fill:#514942; stroke:none;" d="M99 102L100 103L99 102z"/>
<path style="fill:#aaa294; stroke:none;" d="M181 102L181 107C181.83 104.97 181.83 104.03 181 102z"/>
<path style="fill:#303746; stroke:none;" d="M188 102L189 103L188 102z"/>
<path style="fill:#c6c6c4; stroke:none;" d="M190 102C192.052 102.874 193.747 102.953 196 103C193.948 102.126 192.253 102.047 190 102z"/>
<path style="fill:#7a889a; stroke:none;" d="M202 102L202 109C203.059 106.466 203.059 104.534 202 102z"/>
<path style="fill:#3f3427; stroke:none;" d="M228 102L229 103L228 102z"/>
<path style="fill:#9da7b0; stroke:none;" d="M235 102L236 103L235 102z"/>
<path style="fill:#cad1dc; stroke:none;" d="M258 102L259 103L258 102z"/>
<path style="fill:#c7d0dc; stroke:none;" d="M310 102L310 109C311.059 106.466 311.059 104.534 310 102z"/>
<path style="fill:#b7aea8; stroke:none;" d="M320 102L321 103L320 102z"/>
<path style="fill:#666a6d; stroke:none;" d="M333 102L334 103L333 102z"/>
<path style="fill:#c9ced3; stroke:none;" d="M334 102L335 103L334 102z"/>
<path style="fill:#cfcac8; stroke:none;" d="M345 102L346 103L345 102z"/>
<path style="fill:#5a5751; stroke:none;" d="M346 102L347 103L346 102z"/>
<path style="fill:#6c6660; stroke:none;" d="M407 102L408 103L407 102z"/>
<path style="fill:#696967; stroke:none;" d="M436 102C437.506 102.683 438.315 102.826 440 103C438.494 102.317 437.685 102.174 436 102z"/>
<path style="fill:#30302e; stroke:none;" d="M440 102L441 103L440 102z"/>
<path style="fill:#abb4b6; stroke:none;" d="M449 102L450 103L449 102z"/>
<path style="fill:#b2adaa; stroke:none;" d="M460 102L461 103L460 102z"/>
<path style="fill:#63676a; stroke:none;" d="M473 102L474 103L473 102z"/>
<path style="fill:#d3cecb; stroke:none;" d="M485 102L486 103L485 102z"/>
<path style="fill:#5f5956; stroke:none;" d="M486 102L487 103L486 102z"/>
<path style="fill:#c2ccd6; stroke:none;" d="M523 102L523 109C524.06 106.466 524.06 104.534 523 102z"/>
<path style="fill:#aea395; stroke:none;" d="M40.3333 103.667C40.2778 103.722 40.2222 104.778 40.6667 104.333C40.7222 104.278 40.7778 103.222 40.3333 103.667z"/>
<path style="fill:#c0cad1; stroke:none;" d="M46 103L46 109C46.9511 106.715 46.9511 105.285 46 103z"/>
<path style="fill:#1c1e2e; stroke:none;" d="M96.3333 103.667C96.2778 103.722 96.2222 104.778 96.6667 104.333C96.7222 104.278 96.7778 103.222 96.3333 103.667z"/>
<path style="fill:#938e8a; stroke:none;" d="M114 103L115 104L114 103z"/>
<path style="fill:#25313d; stroke:none;" d="M129 103L129 106C129.696 104.446 129.696 104.554 129 103z"/>
<path style="fill:#969694; stroke:none;" d="M133 103L134 104L133 103z"/>
<path style="fill:#565357; stroke:none;" d="M134 103C135.248 103.685 135.548 103.749 137 104C135.752 103.315 135.452 103.251 134 103z"/>
<path style="fill:#a6a8a2; stroke:none;" d="M137.667 103.333C137.222 103.778 138.278 103.722 138.333 103.667C138.778 103.222 137.722 103.278 137.667 103.333z"/>
<path style="fill:#55626f; stroke:none;" d="M147 103L148 104L147 103z"/>
<path style="fill:#a49384; stroke:none;" d="M151 103L152 104L151 103z"/>
<path style="fill:#242f3a; stroke:none;" d="M158 103L159 104L158 103z"/>
<path style="fill:#c5c3c4; stroke:none;" d="M170 103L171 104L170 103z"/>
<path style="fill:#7a7a7a; stroke:none;" d="M171 103L172 104L171 103z"/>
<path style="fill:#2c2c2c; stroke:none;" d="M172 103L173 104L172 103z"/>
<path style="fill:#595a5f; stroke:none;" d="M173 103L174 104L173 103z"/>
<path style="fill:#2c2f37; stroke:none;" d="M174 103L175 104L174 103z"/>
<path style="fill:#878b95; stroke:none;" d="M175 103L176 104L175 103z"/>
<path style="fill:#929aaf; stroke:none;" d="M188 103L189 104L188 103z"/>
<path style="fill:#b6ad9c; stroke:none;" d="M228 103L229 104L228 103z"/>
<path style="fill:#afb7c2; stroke:none;" d="M257 103L258 104L257 103z"/>
<path style="fill:#bfb6b0; stroke:none;" d="M321 103L322 104L321 103z"/>
<path style="fill:#303035; stroke:none;" d="M336 103L337 104L336 103z"/>
<path style="fill:#9fa1a3; stroke:none;" d="M337 103C338.769 103.779 340.036 103.912 342 104C340.231 103.221 338.964 103.088 337 103z"/>
<path style="fill:#615d5c; stroke:none;" d="M342 103L343 104L342 103z"/>
<path style="fill:#cdc8c4; stroke:none;" d="M405 103L406 104L405 103z"/>
<path style="fill:#cbd0d3; stroke:none;" d="M448 103L449 104L448 103z"/>
<path style="fill:#bab2b0; stroke:none;" d="M461 103L462 104L461 103z"/>
<path style="fill:#333436; stroke:none;" d="M476 103L477 104L476 103z"/>
<path style="fill:#a1a1a0; stroke:none;" d="M477 103C478.769 103.779 480.036 103.912 482 104C480.231 103.221 478.964 103.088 477 103z"/>
<path style="fill:#64635f; stroke:none;" d="M482 103L483 104L482 103z"/>
<path style="fill:#978d8d; stroke:none;" d="M98 104L99 105L98 104z"/>
<path style="fill:#f0e9e3; stroke:none;" d="M114 104L114 108C114.71 106.241 114.71 105.759 114 104z"/>
<path style="fill:#a9acb1; stroke:none;" d="M160 104L161 105L160 104z"/>
<path style="fill:#565251; stroke:none;" d="M168 104L169 105L168 104z"/>
<path style="fill:#717e8c; stroke:none;" d="M176 104L177 105L176 104z"/>
<path style="fill:#1d293b; stroke:none;" d="M188 104L188 110C188.951 107.715 188.951 106.285 188 104z"/>
<path style="fill:#919aa6; stroke:none;" d="M236 104L237 105L236 104z"/>
<path style="fill:#acb0ba; stroke:none;" d="M256 104L257 105L256 104z"/>
<path style="fill:#c8bfbc; stroke:none;" d="M404 104L405 105L404 104z"/>
<path style="fill:#d5cacc; stroke:none;" d="M462 104L463 105L462 104z"/>
<path style="fill:#706a5d; stroke:none;" d="M91 105L92 106L91 105z"/>
<path style="fill:#7c7d89; stroke:none;" d="M96 105L97 106L96 105z"/>
<path style="fill:#28333d; stroke:none;" d="M105 105L106 106L105 105z"/>
<path style="fill:#c7d1d8; stroke:none;" d="M120 105L120 110C120.83 107.97 120.83 107.03 120 105z"/>
<path style="fill:#bfbcaf; stroke:none;" d="M141 105L142 106L141 105z"/>
<path style="fill:#483f39; stroke:none;" d="M152 105L153 106L152 105z"/>
<path style="fill:#47484e; stroke:none;" d="M162 105L163 106L162 105z"/>
<path style="fill:#989898; stroke:none;" d="M163.667 105.333C163.222 105.778 164.278 105.722 164.333 105.667C164.778 105.222 163.722 105.278 163.667 105.333z"/>
<path style="fill:#565751; stroke:none;" d="M165 105L166 106L165 105z"/>
<path style="fill:#162533; stroke:none;" d="M176.333 105.667C176.278 105.722 176.222 106.778 176.667 106.333C176.722 106.278 176.778 105.222 176.333 105.667z"/>
<path style="fill:#7e715f; stroke:none;" d="M229 105L230 106L229 105z"/>
<path style="fill:#42342e; stroke:none;" d="M245 105L246 106L245 105z"/>
<path style="fill:#acb7c0; stroke:none;" d="M255 105L256 106L255 105z"/>
<path style="fill:#443b38; stroke:none;" d="M324 105L325 106L324 105z"/>
<path style="fill:#cbcac8; stroke:none;" d="M372 105C373.248 105.685 373.548 105.749 375 106C373.752 105.315 373.452 105.251 372 105z"/>
<path style="fill:#6a6d76; stroke:none;" d="M445 105L446 106L445 105z"/>
<path style="fill:#38332f; stroke:none;" d="M464 105L465 106L464 105z"/>
<path style="fill:#b8b7bc; stroke:none;" d="M96 106L97 107L96 106z"/>
<path style="fill:#a7b4c1; stroke:none;" d="M105 106L106 107L105 106z"/>
<path style="fill:#4d6067; stroke:none;" d="M129 106L130 107L129 106z"/>
<path style="fill:#655c50; stroke:none;" d="M142 106L143 107L142 106z"/>
<path style="fill:#a1a8b7; stroke:none;" d="M149 106L150 107L149 106z"/>
<path style="fill:#b8b2ae; stroke:none;" d="M325 106L326 107L325 106z"/>
<path style="fill:#808890; stroke:none;" d="M354 106L355 107L354 106z"/>
<path style="fill:#9b948c; stroke:none;" d="M370 106L371 107L370 106z"/>
<path style="fill:#010005; stroke:none;" d="M375 113C373.225 115.387 371.289 117.11 369 119C371.288 119.65 373.536 120.315 375.773 118.969C379.737 116.584 379.914 109.38 375.772 107.047C372.634 105.279 367.156 108.932 370.598 111.973C371.786 113.023 373.555 112.887 375 113z"/>
<path style="fill:#89949e; stroke:none;" d="M376 106L377 107L376 106z"/>
<path style="fill:#86817b; stroke:none;" d="M403 106L403 109C403.696 107.446 403.696 107.554 403 106z"/>
<path style="fill:#ada8a1; stroke:none;" d="M465 106L466 107L465 106z"/>
<path style="fill:#8c9399; stroke:none;" d="M494 106L495 107L494 106z"/>
<path style="fill:#575d6c; stroke:none;" d="M547 106L548 107L547 106z"/>
<path style="fill:#494239; stroke:none;" d="M92 107L93 108L92 107z"/>
<path style="fill:#f2e8e3; stroke:none;" d="M96 107L97 111C97.7511 108.954 97.6556 108.404 96 107z"/>
<path style="fill:#768689; stroke:none;" d="M129.333 107.667C129.278 107.722 129.222 108.778 129.667 108.333C129.722 108.278 129.778 107.222 129.333 107.667z"/>
<path style="fill:#a7a398; stroke:none;" d="M153 107L154 108L153 107z"/>
<path style="fill:#687783; stroke:none;" d="M176 107L177 108L176 107z"/>
<path style="fill:#55585d; stroke:none;" d="M239 107L240 108L239 107z"/>
<path style="fill:#e4e6e5; stroke:none;" d="M240.667 107.333C240.222 107.778 241.278 107.722 241.333 107.667C241.778 107.222 240.722 107.278 240.667 107.333z"/>
<path style="fill:#b9b8b3; stroke:none;" d="M242 107L243 108L242 107z"/>
<path style="fill:#6c6963; stroke:none;" d="M327 107L328 108L327 107z"/>
<path style="fill:#242a38; stroke:none;" d="M352 107L353 108L352 107z"/>
<path style="fill:#867e74; stroke:none;" d="M369 107L370 108L369 107z"/>
<path style="fill:#747c88; stroke:none;" d="M377 107L378 108L377 107z"/>
<path style="fill:#787b79; stroke:none;" d="M413 107C414.248 107.685 414.548 107.749 416 108C414.752 107.315 414.452 107.251 413 107z"/>
<path style="fill:#4d4945; stroke:none;" d="M416 107C417.248 107.685 417.548 107.749 419 108C417.752 107.315 417.452 107.251 416 107z"/>
<path style="fill:#5f6064; stroke:none;" d="M441 107L442 108L441 107z"/>
<path style="fill:#75706c; stroke:none;" d="M467 107L468 108L467 107z"/>
<path style="fill:#282d33; stroke:none;" d="M492 107L493 108L492 107z"/>
<path style="fill:#b4bac8; stroke:none;" d="M547 107L548 108L547 107z"/>
<path style="fill:#837d6f; stroke:none;" d="M41 108L42 109L41 108z"/>
<path style="fill:#283244; stroke:none;" d="M104 108L105 109L104 108z"/>
<path style="fill:#758492; stroke:none;" d="M150 108L151 109L150 108z"/>
<path style="fill:#c3beba; stroke:none;" d="M154 108L155 109L154 108z"/>
<path style="fill:#c4bbb8; stroke:none;" d="M231 108L232 109L231 108z"/>
<path style="fill:#696460; stroke:none;" d="M329 108L330 109L329 108z"/>
<path style="fill:#38393e; stroke:none;" d="M350 108L351 109L350 108z"/>
<path style="fill:#2e2e34; stroke:none;" d="M410 108L411 109L410 108z"/>
<path style="fill:#d0d5d7; stroke:none;" d="M411 108L412 109L411 108z"/>
<path style="fill:#d0cecf; stroke:none;" d="M428 108C429.769 108.779 431.036 108.912 433 109C431.231 108.221 429.964 108.088 428 108z"/>
<path style="fill:#919193; stroke:none;" d="M433 108C435.052 108.874 436.747 108.953 439 109C436.948 108.126 435.253 108.047 433 108z"/>
<path style="fill:#6a6665; stroke:none;" d="M469 108L470 109L469 108z"/>
<path style="fill:#373b3e; stroke:none;" d="M490 108L491 109L490 108z"/>
<path style="fill:#94969b; stroke:none;" d="M94 109L95 110L94 109z"/>
<path style="fill:#cecfd4; stroke:none;" d="M95 109L96 110L95 109z"/>
<path style="fill:#9facbe; stroke:none;" d="M104 109L105 110L104 109z"/>
<path style="fill:#c5bdb2; stroke:none;" d="M115 109L116 110L115 109z"/>
<path style="fill:#a3afb3; stroke:none;" d="M129 109L130 110L129 109z"/>
<path style="fill:#bfb4aa; stroke:none;" d="M144 109L145 110L144 109z"/>
<path style="fill:#0d1f31; stroke:none;" d="M150 109L150 112C150.696 110.446 150.696 110.554 150 109z"/>
<path style="fill:#645f5e; stroke:none;" d="M156 109L157 110L156 109z"/>
<path style="fill:#ced3d9; stroke:none;" d="M174 109L175 110L174 109z"/>
<path style="fill:#8b8179; stroke:none;" d="M182 109L183 110L182 109z"/>
<path style="fill:#5d534b; stroke:none;" d="M196 109L197 110L196 109z"/>
<path style="fill:#c2cfd9; stroke:none;" d="M202 109L203 110L202 109z"/>
<path style="fill:#c9c8c3; stroke:none;" d="M232 109L233 110L232 109z"/>
<path style="fill:#9faeb8; stroke:none;" d="M254.333 109.667C254.278 109.722 254.222 110.778 254.667 110.333C254.722 110.278 254.778 109.222 254.333 109.667z"/>
<path style="fill:#a6a0a0; stroke:none;" d="M331 109L332 110L331 109z"/>
<path style="fill:#95959b; stroke:none;" d="M348 109L349 110L348 109z"/>
<path style="fill:#606974; stroke:none;" d="M378 109L379 110L378 109z"/>
<path style="fill:#555557; stroke:none;" d="M408 109L409 110L408 109z"/>
<path style="fill:#a5a19e; stroke:none;" d="M471 109L472 110L471 109z"/>
<path style="fill:#94959a; stroke:none;" d="M488 109L489 110L488 109z"/>
<path style="fill:#a0988f; stroke:none;" d="M540 109L541 110L540 109z"/>
<path style="fill:#51423b; stroke:none;" d="M42 110L43 111L42 110z"/>
<path style="fill:#50453a; stroke:none;" d="M116 110L117 111L116 110z"/>
<path style="fill:#d5cbc9; stroke:none;" d="M124 110L125 111L124 110z"/>
<path style="fill:#605147; stroke:none;" d="M145 110L146 111L145 110z"/>
<path style="fill:#cdcec8; stroke:none;" d="M158 110L159 111L158 110z"/>
<path style="fill:#7f817b; stroke:none;" d="M159 110L160 111L159 110z"/>
<path style="fill:#4b4a46; stroke:none;" d="M160 110L161 111L160 110z"/>
<path style="fill:#5a585e; stroke:none;" d="M167 110C168.248 110.685 168.548 110.749 170 111C168.752 110.315 168.452 110.251 167 110z"/>
<path style="fill:#b0b1b6; stroke:none;" d="M170 110L171 111L170 110z"/>
<path style="fill:#d9cfc4; stroke:none;" d="M183 110L184 111L183 110z"/>
<path style="fill:#3a383b; stroke:none;" d="M184.667 110.333C184.222 110.778 185.278 110.722 185.333 110.667C185.778 110.222 184.722 110.278 184.667 110.333z"/>
<path style="fill:#777f87; stroke:none;" d="M186.667 110.333C186.222 110.778 187.278 110.722 187.333 110.667C187.778 110.222 186.722 110.278 186.667 110.333z"/>
<path style="fill:#a3998e; stroke:none;" d="M197 110L198 111L197 110z"/>
<path style="fill:#49505b; stroke:none;" d="M201 110L202 111L201 110z"/>
<path style="fill:#83827e; stroke:none;" d="M234 110L235 111L234 110z"/>
<path style="fill:#c0c0bd; stroke:none;" d="M305 110L306 111L305 110z"/>
<path style="fill:#909195; stroke:none;" d="M306 110C307.248 110.685 307.548 110.749 309 111C307.752 110.315 307.452 110.251 306 110z"/>
<path style="fill:#c5c4c0; stroke:none;" d="M334 110L335 111L334 110z"/>
<path style="fill:#87837f; stroke:none;" d="M335 110L336 111L335 110z"/>
<path style="fill:#4d4847; stroke:none;" d="M336 110L337 111L336 110z"/>
<path style="fill:#4b5053; stroke:none;" d="M343 110L344 111L343 110z"/>
<path style="fill:#888b91; stroke:none;" d="M344 110L345 111L344 110z"/>
<path style="fill:#bfbbb6; stroke:none;" d="M474 110L475 111L474 110z"/>
<path style="fill:#8f8a87; stroke:none;" d="M475 110L476 111L475 110z"/>
<path style="fill:#1d1b1c; stroke:none;" d="M476.667 110.333C476.222 110.778 477.278 110.722 477.333 110.667C477.778 110.222 476.722 110.278 476.667 110.333z"/>
<path style="fill:#4a4b4d; stroke:none;" d="M482.667 110.333C482.222 110.778 483.278 110.722 483.333 110.667C483.778 110.222 482.722 110.278 482.667 110.333z"/>
<path style="fill:#8d8e93; stroke:none;" d="M484 110L485 111L484 110z"/>
<path style="fill:#cbccd0; stroke:none;" d="M485 110L486 111L485 110z"/>
<path style="fill:#9f9e9c; stroke:none;" d="M518.667 110.333C518.222 110.778 519.278 110.722 519.333 110.667C519.778 110.222 518.722 110.278 518.667 110.333z"/>
<path style="fill:#777c7f; stroke:none;" d="M520.667 110.333C520.222 110.778 521.278 110.722 521.333 110.667C521.778 110.222 520.722 110.278 520.667 110.333z"/>
<path style="fill:#d7d4ce; stroke:none;" d="M541 110L542 111L541 110z"/>
<path style="fill:#6f7076; stroke:none;" d="M542 110C543.248 110.685 543.548 110.749 545 111C543.752 110.315 543.451 110.251 542 110z"/>
<path style="fill:#3b2f2e; stroke:none;" d="M43 111L44 112L43 111z"/>
<path style="fill:#b2b5bd; stroke:none;" d="M45 111L46 112L45 111z"/>
<path style="fill:#4c443d; stroke:none;" d="M98 111L99 112L98 111z"/>
<path style="fill:#3a3d4e; stroke:none;" d="M103 111L104 112L103 111z"/>
<path style="fill:#453c39; stroke:none;" d="M117 111L118 112L117 111z"/>
<path style="fill:#cfcac7; stroke:none;" d="M236 111L237 112L236 111z"/>
<path style="fill:#7e7975; stroke:none;" d="M237 111L238 112L237 111z"/>
<path style="fill:#353030; stroke:none;" d="M238 111L239 112L238 111z"/>
<path style="fill:#4b5051; stroke:none;" d="M243 111L244 112L243 111z"/>
<path style="fill:#818587; stroke:none;" d="M244 111L245 112L244 111z"/>
<path style="fill:#514c48; stroke:none;" d="M247 111L248 112L247 111z"/>
<path style="fill:#bcb7b0; stroke:none;" d="M247 112L248 113L247 112z"/>
<path style="fill:#646253; stroke:none;" d="M369 112L370 113L369 112z"/>
<path style="fill:#c9cfd4; stroke:none;" d="M379 112L379 115C379.696 113.446 379.696 113.554 379 112z"/>
<path style="fill:#babbbf; stroke:none;" d="M147.667 113.333C147.222 113.778 148.278 113.722 148.333 113.667C148.778 113.222 147.722 113.278 147.667 113.333z"/>
<path style="fill:#b0a8a2; stroke:none;" d="M370 113C371.248 113.685 371.548 113.749 373 114C371.752 113.315 371.452 113.251 370 113z"/>
<path style="fill:#a49e98; stroke:none;" d="M374.333 113.667C374.278 113.722 374.222 114.778 374.667 114.333C374.722 114.278 374.778 113.222 374.333 113.667z"/>
<path style="fill:#403e41; stroke:none;" d="M249.667 114.333C249.222 114.778 250.278 114.722 250.333 114.667C250.778 114.222 249.722 114.278 249.667 114.333z"/>
<path style="fill:#7f7e84; stroke:none;" d="M251 114L252 115L251 114z"/>
<path style="fill:#4a4d5d; stroke:none;" d="M378 116L379 117L378 116z"/>
<path style="fill:#998f87; stroke:none;" d="M371 117L372 118L371 117z"/>
<path style="fill:#aeb0bd; stroke:none;" d="M377 118L378 119L377 118z"/>
<path style="fill:#bcb7be; stroke:none;" d="M371 120C372.248 120.685 372.548 120.749 374 121C372.752 120.315 372.452 120.251 371 120z"/>
</svg>
